<?xml version="1.0" encoding="UTF-8"?>
<svg version="1.1" xmlns="http://www.w3.org/2000/svg" width="916" height="240">
<path d="M0 0 C0.7734375 -0.00773438 1.546875 -0.01546875 2.34375 -0.0234375 C5.09539037 0.48501779 5.82009077 1.14869247 7.5 3.375 C7.88818359 6.0546875 7.88818359 6.0546875 7.8984375 9.25 C7.90230469 10.39984375 7.90617188 11.5496875 7.91015625 12.734375 C7.89275391 14.53648438 7.89275391 14.53648438 7.875 16.375 C7.88660156 17.57640625 7.89820313 18.7778125 7.91015625 20.015625 C7.90628906 21.16546875 7.90242187 22.3153125 7.8984375 23.5 C7.89505371 24.55445312 7.89166992 25.60890625 7.88818359 26.6953125 C7.5 29.375 7.5 29.375 6.15478516 31.1875 C3.61947356 33.0068797 1.59441388 33.25122344 -1.5 33.375 C-4.3125 32.3125 -4.3125 32.3125 -6.5 30.375 C-7.3125 27.1875 -7.3125 27.1875 -7.5 24.375 C-8.96109063 24.63054054 -10.41888096 24.90500372 -11.875 25.1875 C-12.68710938 25.33832031 -13.49921875 25.48914063 -14.3359375 25.64453125 C-16.85820641 26.25044942 -16.85820641 26.25044942 -18.5 29.375 C-20.39245567 44.84042596 -16.48942009 65.11935017 -6.875 77.4609375 C0.8851199 85.97551351 11.75177192 90.15673768 23.0625 90.6875 C33.6846011 90.52776916 43.69833849 86.55965841 51.5 79.375 C59.96060552 69.71487574 61.99177666 59.16030631 63.875 46.75 C64.07738281 45.56148437 64.27976562 44.37296875 64.48828125 43.1484375 C65.48998339 36.59715924 66.12237955 32.09540933 62.5 26.375 C59.79120665 25.02060332 57.49066732 25.30998549 54.5 25.375 C54.2525 26.138125 54.005 26.90125 53.75 27.6875 C52.33991588 30.71918085 51.48373624 31.88313188 48.5 33.375 C44.96802196 33.30141712 43.11938977 32.86753863 40.34350586 30.66015625 C38.07449225 27.84755297 37.99699702 26.45097556 38.00390625 22.875 C38.00326172 21.823125 38.00261719 20.77125 38.00195312 19.6875 C38.02193359 18.594375 38.04191406 17.50125 38.0625 16.375 C38.05541016 15.281875 38.04832031 14.18875 38.04101562 13.0625 C38.11423669 3.87044011 38.11423669 3.87044011 41.5 0.375 C43.98046875 -0.015625 43.98046875 -0.015625 46.6875 0.125 C48.03908203 0.17914062 48.03908203 0.17914062 49.41796875 0.234375 C50.10503906 0.28078125 50.79210937 0.3271875 51.5 0.375 C51.9021875 2.045625 51.9021875 2.045625 52.3125 3.75 C53.05209987 5.763887 53.05209987 5.763887 54.5 7.375 C57.1863449 8.1804535 59.80151188 8.4598846 62.58203125 8.8125 C69.45655076 10.13770858 74.10004887 14.37703008 78 20 C84.09911188 29.65692714 81.45791532 41.61414828 79.8125 52.3125 C79.66361328 53.40240234 79.51472656 54.49230469 79.36132812 55.61523438 C77.62216532 67.09370889 73.54584794 77.12732458 66.5 86.375 C65.75105469 87.36886719 65.00210938 88.36273438 64.23046875 89.38671875 C61.55415324 92.58145131 58.45118418 94.28363277 54.8125 96.3125 C51.00956515 98.67418523 48.77032968 100.50994504 47.38671875 104.9375 C47.12879402 107.52195793 46.93215693 110.11326049 46.796875 112.70703125 C46.26028517 119.3367398 43.45480988 124.98009058 38.4375 129.375 C36.1388295 130.94005225 33.98805164 132.1764547 31.5 133.375 C31.49857498 134.40515228 31.49714996 135.43530457 31.49568176 136.49667358 C31.47896505 146.23586031 31.43604909 155.97463169 31.36790943 165.71359825 C31.33371369 170.71977019 31.308541 175.72563936 31.30444336 180.73193359 C31.30014449 185.56923388 31.27155052 190.40585202 31.22656822 195.242939 C31.21364385 197.08233278 31.20926748 198.92180842 31.21384621 200.76124191 C31.25290307 221.22806247 31.25290307 221.22806247 23.21875 229.8125 C22.4865625 230.328125 21.754375 230.84375 21 231.375 C20.2678125 231.91125 19.535625 232.4475 18.78125 233 C11.93879379 237.12422018 5.33574887 237.18765954 -2.5 236.375 C-9.85170153 234.23903266 -15.41339671 229.81794557 -19.5 223.375 C-22.77741175 216.52992602 -22.90835697 209.24731359 -23.09375 201.79296875 C-23.52523649 198.16267379 -24.31771173 196.27235845 -26.5 193.375 C-29.59994892 191.48058677 -31.40775048 191.37176317 -35.0625 191.5 C-38.81119446 192.45421314 -40.14009442 193.37973522 -42.5 196.375 C-43.7838048 198.9426096 -43.6560009 201.26205454 -43.73876953 204.08837891 C-44.04898581 213.70919237 -44.97344637 221.83494309 -51.6875 229.25 C-58.53329208 235.37213541 -65.22947052 237.08349232 -74.3515625 236.75390625 C-81.68120233 235.87180319 -86.68064831 232.72967634 -91.89453125 227.64453125 C-96.0903938 221.71315378 -97.82373179 216.99880194 -97.23925781 209.63989258 C-96.3382507 198.21310705 -95.63112074 187.64922561 -103.17382812 178.32568359 C-108.72087147 171.89925006 -115.08429674 166.24004277 -121.45532227 160.65118408 C-125.05381103 157.46573095 -128.55791428 154.17718667 -132.06708145 150.89401722 C-134.79598657 148.3415921 -137.53589898 145.81055899 -140.33587646 143.33610535 C-148.512993 136.01588201 -153.99123129 128.64312445 -154.7734375 117.46875 C-155.16564446 105.03755369 -153.53209868 95.91956274 -145.4375 86 C-137.3172328 77.59599634 -127.11043375 74.13604337 -115.75 73 C-105.9842028 73.31188175 -97.09451891 77.48777604 -89.5 83.375 C-88.77296875 82.77751953 -88.77296875 82.77751953 -88.03125 82.16796875 C-79.52955937 75.44836327 -70.47844878 72.35110322 -59.5 73.375 C-47.17554917 75.55533763 -37.91593976 81.29824853 -30.5 91.375 C-24.9132871 100.20400164 -23.29151489 109.79450249 -24.9296875 120.0703125 C-27.70293179 132.08770444 -34.9682272 140.42835647 -43.94431877 148.50867271 C-46.60883756 150.92351601 -49.20881409 153.40714186 -51.82226562 155.87695312 C-55.11867933 158.98273602 -58.42979052 162.06680163 -61.80395508 165.08813477 C-75.82194734 176.92308772 -75.82194734 176.92308772 -83.00830078 193.03369141 C-83.40648545 201.31207231 -82.86012149 210.96147093 -78.375 218.1875 C-75.30504024 220.13180785 -72.05716362 220.47941772 -68.5 220.375 C-65.03944128 219.06767782 -63.8344231 217.91478486 -61.890625 214.77734375 C-60.21575842 210.67956626 -60.1064598 207.36892733 -60.0625 203 C-59.75478156 194.07902331 -57.83978732 188.08771598 -51.5 181.375 C-43.93086742 175.61587739 -36.84546574 174.40076226 -27.5 175.375 C-19.75149371 177.55684728 -13.75416337 181.88868087 -9.6875 188.875 C-6.27310318 195.15130224 -6.25506045 201.49263143 -6.15820312 208.4921875 C-5.96070075 213.36085077 -5.07152386 216.02550693 -1.5 219.375 C2.46570689 221.04477132 5.89211485 220.58888552 9.875 219.1875 C12.72628555 217.21875521 13.34654905 216.55468845 14.5 213.375 C14.72516354 210.77407644 14.84489902 208.27530854 14.86987305 205.67236328 C14.89199608 204.51551529 14.89199608 204.51551529 14.91456604 203.33529663 C14.95901044 200.78864831 14.98729143 198.24222797 15.01171875 195.6953125 C15.02581756 194.38814081 15.02581756 194.38814081 15.04020119 193.05456161 C15.08772636 188.44411154 15.12143036 183.8337746 15.14526367 179.22314453 C15.17300253 174.46526936 15.25221424 169.70968649 15.34280682 164.95265388 C15.40263832 161.28942521 15.42253099 157.62674303 15.43177223 153.96306992 C15.44334882 152.20947503 15.47018295 150.4559107 15.51270103 148.70279312 C16.11247983 139.27215001 16.11247983 139.27215001 12.51773071 131.03729248 C10.23261208 129.52914237 7.99251837 128.48566746 5.5 127.375 C-1.13578538 119.37802788 -0.97485599 110.3389167 -1.5 100.375 C-2.36753906 100.148125 -3.23507812 99.92125 -4.12890625 99.6875 C-7.93965668 98.20382428 -10.51832921 96.14623823 -13.4375 93.375 C-13.95965088 92.88370605 -14.48180176 92.39241211 -15.01977539 91.88623047 C-30.88625784 76.57348751 -34.40750747 56.24294463 -35.64257812 34.91259766 C-35.76625892 27.04613534 -33.06343029 21.26180879 -28.25 15.13671875 C-24.54597106 11.40788605 -18.75354909 8.53052338 -13.45703125 8.27734375 C-12.74933594 8.28894531 -12.04164063 8.30054688 -11.3125 8.3125 C-9.4253125 8.3434375 -9.4253125 8.3434375 -7.5 8.375 C-7.561875 7.611875 -7.62375 6.84875 -7.6875 6.0625 C-7.5 3.375 -7.5 3.375 -6.26953125 1.73046875 C-4.04132857 0.02365566 -2.78233381 -0.02782334 0 0 Z " fill="#215C5C" transform="translate(268.5,-0.375)"/>
<path d="M0 0 C8.25 0 16.5 0 25 0 C27.42701551 6.61820617 29.8500759 13.23758827 32.26318359 19.86083984 C33.08542199 22.11396132 33.90995416 24.36624708 34.73681641 26.61767578 C35.92432759 29.85232509 37.10358116 33.08988143 38.28125 36.328125 C38.65310425 37.33554749 39.0249585 38.34296997 39.40808105 39.38092041 C39.74843384 40.32159363 40.08878662 41.26226685 40.43945312 42.23144531 C40.89245789 43.47054657 40.89245789 43.47054657 41.35461426 44.73468018 C42 47 42 47 42 51 C42.66 51 43.32 51 44 51 C44.09531006 50.05761475 44.19062012 49.11522949 44.28881836 48.14428711 C45.01162808 43.12299697 46.71421246 38.46631439 48.37890625 33.69140625 C48.71043198 32.72468491 49.0419577 31.75796356 49.38352966 30.76194763 C50.43734167 27.69341698 51.4997799 24.62795547 52.5625 21.5625 C53.28117171 19.47480645 53.99927684 17.38691777 54.71679688 15.29882812 C56.47026515 10.19653952 58.23538067 5.09849701 60 0 C68.25 0 76.5 0 85 0 C85.495 4.455 85.495 4.455 86 9 C84.33611891 10.33680786 82.66922601 11.66987216 81 13 C80.19812876 16.38859939 80.27881101 19.76509474 80.29296875 23.234375 C80.27028679 24.72411835 80.27028679 24.72411835 80.24714661 26.24395752 C80.20419423 29.41286794 80.19542413 32.5808272 80.1875 35.75 C80.16436163 37.899765 80.13899768 40.04950729 80.11132812 42.19921875 C80.0484018 47.46615477 80.01352718 52.73271798 80 58 C80.804375 58.268125 81.60875 58.53625 82.4375 58.8125 C83.283125 59.204375 84.12875 59.59625 85 60 C86 63 86 63 85 71 C76.75 71 68.5 71 60 71 C59.67 67.7 59.34 64.4 59 61 C61.40698242 58.80957031 61.40698242 58.80957031 64 57 C64.68790703 53.7200668 64.68790703 53.7200668 64.48828125 50.046875 C64.47579346 48.83870117 64.46330566 47.63052734 64.45043945 46.38574219 C64.40491943 44.85594727 64.35939941 43.32615234 64.3125 41.75 C64.209375 36.8825 64.10625 32.015 64 27 C59.05 41.52 54.1 56.04 49 71 C43.72 71 38.44 71 33 71 C32.58113525 69.79875488 32.16227051 68.59750977 31.73071289 67.35986328 C30.17965349 62.91277699 28.62683863 58.46630538 27.07348633 54.02001953 C26.40080456 52.09375523 25.72860212 50.16732348 25.05688477 48.24072266 C24.09256258 45.47514627 23.12653102 42.71017221 22.16015625 39.9453125 C21.85908463 39.0806839 21.558013 38.2160553 21.24781799 37.32522583 C20.8274955 36.12420731 20.8274955 36.12420731 20.39868164 34.89892578 C20.15219376 34.1927713 19.90570587 33.48661682 19.65174866 32.75906372 C19.01034396 30.9301833 19.01034396 30.9301833 18 29 C17.90106547 33.07496103 17.82850306 37.14945656 17.78027344 41.2253418 C17.76016725 42.61153338 17.73287755 43.99764025 17.69824219 45.38354492 C17.64968775 47.37641906 17.62916028 49.36991389 17.609375 51.36328125 C17.5779541 53.16212769 17.5779541 53.16212769 17.54589844 54.99731445 C17.71969909 58.52028126 17.71969909 58.52028126 22 61 C22 64.3 22 67.6 22 71 C14.74 71 7.48 71 0 71 C-0.33 68.03 -0.66 65.06 -1 62 C0.66237792 60.66132334 2.3293829 59.32838024 4 58 C4.79493398 54.64340652 4.70050497 51.30703838 4.6640625 47.87109375 C4.66884613 46.88504654 4.67362976 45.89899933 4.67855835 44.8830719 C4.68195755 42.80101931 4.67275374 40.71891337 4.65185547 38.63696289 C4.62506229 35.44492098 4.65161784 32.25638643 4.68359375 29.06445312 C4.68029022 27.04165889 4.67388515 25.01886684 4.6640625 22.99609375 C4.67418365 22.03980576 4.68430481 21.08351776 4.69473267 20.09825134 C4.65085982 17.62692079 4.58391007 15.40215745 4 13 C1.6031255 11.03345962 1.6031255 11.03345962 -1 10 C-1.40565724 6.21386577 -1.20307987 3.60923962 0 0 Z " fill="#205B5B" transform="translate(357,96)"/>
<path d="M0 0 C5.2561486 3.01741864 10.08504484 6.64754484 14.375 10.9375 C17.36208166 11.62203955 18.51807185 11.81978664 21.375 10.9375 C24.07696702 8.82442323 26.49442049 6.51078732 28.97265625 4.140625 C34.33485927 -0.77690753 39.56461309 -1.58451183 46.73828125 -1.33984375 C54.21054645 -0.55387215 59.29719271 3.74506952 64.375 8.9375 C67.63926773 13.46535524 68.54073801 17.54120299 68.75 23.0625 C68.79898438 23.93132812 68.84796875 24.80015625 68.8984375 25.6953125 C67.38651418 35.06021068 61.41055446 41.61659544 54.828125 48.0078125 C54.01631775 48.81491669 53.2045105 49.62202087 52.36810303 50.45358276 C49.79861783 53.00188799 47.21196316 55.53195338 44.625 58.0625 C42.8726028 59.79837432 41.12128953 61.53534362 39.37109375 63.2734375 C36.18881025 66.42185387 33.00634345 69.5699848 29.80566406 72.69970703 C29.16566467 73.32684601 28.52566528 73.95398499 27.86627197 74.60012817 C26.375 75.9375 26.375 75.9375 25.375 75.9375 C24.90637217 71.18613449 24.67428784 66.67261548 25.375 61.9375 C27.17674773 59.75824322 28.90401056 58.69258598 31.328125 57.265625 C34.89245434 54.95289222 36.29779145 51.97029952 37.375 47.9375 C38.06959991 42.50370282 38.33359627 37.02695131 35.875 32 C31.88713644 27.11486714 26.56172739 23.38398666 20.140625 22.69921875 C14.17127256 22.52310431 10.02291793 23.03778349 5.375 26.9375 C0.59501653 31.69585458 -1.75268327 35.22841763 -1.9375 42.125 C-1.86340809 48.35695271 -0.47749123 52.95094913 3.87109375 57.50390625 C6.28190867 59.6141208 8.32612253 60.92120751 11.375 61.9375 C11.375 66.5575 11.375 71.1775 11.375 75.9375 C8.05123539 74.27561769 6.4767029 73.29090094 3.97094727 70.79223633 C3.32670303 70.15429642 2.6824588 69.51635651 2.01869202 68.85908508 C1.33318771 68.16953232 0.64768341 67.47997955 -0.05859375 66.76953125 C-0.77354507 66.05649338 -1.4884964 65.34345551 -2.22511292 64.60881042 C-3.73627668 63.09900682 -5.24492101 61.5866779 -6.7512207 60.07202148 C-9.04356897 57.76901901 -11.3463124 55.47680686 -13.65039062 53.18554688 C-15.1204329 51.71418205 -16.58985415 50.24219644 -18.05859375 48.76953125 C-18.74207382 48.09009964 -19.42555389 47.41066803 -20.12974548 46.71064758 C-27.43677634 39.33246114 -32.48987705 32.76194862 -33 22 C-32.81555886 15.58338969 -30.9453836 11.37909766 -26.53125 6.734375 C-18.45617672 -0.74852624 -10.8346892 -3.17568477 0 0 Z " fill="#C8E4C6" transform="translate(160.625,89.0625)"/>
<path d="M0 0 C5.22864743 -0.07476069 10.45697628 -0.12888763 15.68603516 -0.16479492 C17.46082996 -0.17978093 19.23558837 -0.20017682 21.01025391 -0.22631836 C44.0367789 -0.55674964 44.0367789 -0.55674964 49.94482422 4.74536133 C54.69639974 9.89923596 55.33839619 14.39181699 55.29296875 21.26953125 C54.89073259 25.01837223 53.41300177 27.16117438 51 30 C50.34 30.99 49.68 31.98 49 33 C49.61359375 33.26167969 50.2271875 33.52335937 50.859375 33.79296875 C54.58847354 35.89569037 55.7943643 38.99556713 57 43 C57.83540482 49.70830068 57.95056956 56.40996489 54.390625 62.3515625 C49.84435503 67.74068027 43.75724775 69.72756702 37 71 C34.03581635 71.24194056 31.09741516 71.23526222 28.125 71.1953125 C27.31506592 71.1924826 26.50513184 71.18965271 25.6706543 71.18673706 C23.11361166 71.17564715 20.55693465 71.15056452 18 71.125 C16.25391135 71.1149557 14.50781715 71.1058324 12.76171875 71.09765625 C8.50767415 71.07574466 4.25389881 71.04129382 0 71 C0 67.37 0 63.74 0 60 C1.32 59.34 2.64 58.68 4 58 C4 43.15 4 28.3 4 13 C2.68 12.34 1.36 11.68 0 11 C0 7.37 0 3.74 0 0 Z M21 13 C21 17.95 21 22.9 21 28 C28.8640063 28.54707567 28.8640063 28.54707567 36.25 26.5 C38.89274485 22.72465021 38.65087039 20.55609272 38 16 C35.62386162 13.44550741 34.26506664 13.02400966 30.765625 12.70703125 C29.02539062 12.75923828 29.02539062 12.75923828 27.25 12.8125 C25.1875 12.874375 23.125 12.93625 21 13 Z M21 41 C21 46.94 21 52.88 21 59 C30.3881124 59.05867553 30.3881124 59.05867553 39 56 C40.16343227 53.67313547 40.19895988 52.15278587 40.25 49.5625 C40.27578125 48.78003906 40.3015625 47.99757813 40.328125 47.19140625 C39.91962728 44.46322502 39.16727539 43.6558389 37 42 C31.83608171 40.2786939 26.40708764 40.94646448 21 41 Z " fill="#205B5B" transform="translate(582,96)"/>
<path d="M0 0 C5.94 0 11.88 0 18 0 C18.33 14.52 18.66 29.04 19 44 C21.64 40.7 24.28 37.4 27 34 C26.67 33.34 26.34 32.68 26 32 C26.33 28.7 26.66 25.4 27 22 C34.92 22 42.84 22 51 22 C51.495 26.455 51.495 26.455 52 31 C49.56843692 33.86066244 47.99153391 34.81552858 44.3125 35.5 C43.549375 35.665 42.78625 35.83 42 36 C40.91568906 37.74867483 40.91568906 37.74867483 40 40 C38.40894715 42.07242234 36.70891569 44.02125551 35 46 C36.97300712 49.01870089 38.97765283 52.01415245 41 55 C41.639375 55.94875 42.27875 56.8975 42.9375 57.875 C45.61617064 60.63484248 48.44629724 61.61800448 52 63 C52.99 63.99 52.99 63.99 54 65 C53.9765625 67.1640625 53.9765625 67.1640625 53.625 69.625 C53.51414062 70.44226563 53.40328125 71.25953125 53.2890625 72.1015625 C53.19367187 72.72804688 53.09828125 73.35453125 53 74 C46.91501247 75.45786159 40.91465464 76.55233936 35 74 C28.17160925 67.63811963 23.5270289 59.07877548 19 51 C18.67 54.63 18.34 58.26 18 62 C19.65 62.66 21.3 63.32 23 64 C24 67 24 67 23 74 C14.75 74 6.5 74 -2 74 C-3.60725635 70.78548731 -3.05748185 67.56387464 -3 64 C-1.35 63.34 0.3 62.68 2 62 C2 45.83 2 29.66 2 13 C-0.475 12.01 -0.475 12.01 -3 11 C-3.29296875 5.04296875 -3.29296875 5.04296875 -3 3 C-2.01 2.01 -1.02 1.02 0 0 Z " fill="#205B5B" transform="translate(752,93)"/>
<path d="M0 0 C6.27 0 12.54 0 19 0 C19.33 19.8 19.66 39.6 20 60 C21.65 60.66 23.3 61.32 25 62 C25 65.3 25 68.6 25 72 C13.98022413 75.62294001 13.98022413 75.62294001 8 75 C7.01 74.01 7.01 74.01 6 73 C4.07031503 73.20676116 4.07031503 73.20676116 1.9375 73.875 C-5.82405975 75.77807475 -12.83219243 75.88975115 -20 72 C-25.09955479 68.03367961 -27.49546003 62.95554467 -28.3034668 56.62084961 C-28.43706465 54.09452175 -28.45869232 51.5920924 -28.4375 49.0625 C-28.45748047 48.22009766 -28.47746094 47.37769531 -28.49804688 46.50976562 C-28.49275632 39.6373364 -26.98862689 33.43229002 -22.38500977 28.14526367 C-17.00587994 22.94485358 -10.51099662 20.86990254 -3.125 20.75 C-0.37484136 20.8091432 1.33589606 21.11196535 4 22 C3.88455718 17.91435675 3.88455718 17.91435675 3 14 C0.08158143 11.91367303 0.08158143 11.91367303 -3 11 C-3.29296875 5.04296875 -3.29296875 5.04296875 -3 3 C-2.01 2.01 -1.02 1.02 0 0 Z M-9.0625 35.25 C-12.15369236 39.63749884 -12.18745371 43.04297546 -12.25 48.3125 C-12.27578125 49.60800781 -12.3015625 50.90351563 -12.328125 52.23828125 C-11.98001565 56.2291063 -11.10699629 58.61960061 -9 62 C-6.17998673 63.41000664 -4.12992745 63.24548451 -1 63 C1.74719572 61.96423709 1.74719572 61.96423709 4 60 C4.68945932 57.20587825 4.68945932 57.20587825 4.48828125 54.01953125 C4.47216797 52.85615234 4.45605469 51.69277344 4.43945312 50.49414062 C4.39755859 49.27919922 4.35566406 48.06425781 4.3125 46.8125 C4.28994141 45.58595703 4.26738281 44.35941406 4.24414062 43.09570312 C4.18513053 40.06258441 4.10284592 37.03189778 4 34 C2.39930438 33.77076551 0.79582418 33.56091412 -0.80859375 33.359375 C-1.70118896 33.24045898 -2.59378418 33.12154297 -3.51342773 32.99902344 C-6.29938354 32.75487525 -6.29938354 32.75487525 -9.0625 35.25 Z " fill="#205B5B" transform="translate(524,93)"/>
<path d="M0 0 C5.18154285 4.33870409 8.47955528 9.16954955 9.21777344 16.02124023 C9.3404104 18.28977074 9.37973936 20.54068599 9.375 22.8125 C9.37258301 24.01072388 9.37258301 24.01072388 9.37011719 25.2331543 C9.24533315 31.22584629 8.37705509 35.93441736 5 41 C4.4225 41.928125 3.845 42.85625 3.25 43.8125 C-3.04824718 49.93579587 -10.62376678 51.31685394 -19.11328125 51.21484375 C-24.82383353 50.78983648 -29.28679085 49.33249601 -33.8125 45.8125 C-39.91659094 37.96438308 -41.8183005 29.85048529 -41 20 C-39.78610432 12.18206638 -37.38621277 5.94378948 -31 1 C-21.36551893 -4.20822637 -9.92021125 -5.00164755 0 0 Z M-22 11 C-24.66965838 14.77172376 -24.3314323 19.00355505 -24.3125 23.4375 C-24.32861328 24.18837891 -24.34472656 24.93925781 -24.36132812 25.71289062 C-24.36536014 30.29729322 -23.96482397 33.28529081 -21 37 C-18.11400612 39.35618542 -18.11400612 39.35618542 -14.5 38.8125 C-10.49907649 37.92333571 -10.49907649 37.92333571 -8 35 C-6.81091359 31.40761924 -6.79854892 27.88754136 -6.75 24.125 C-6.72421875 22.93132812 -6.6984375 21.73765625 -6.671875 20.5078125 C-7.03195573 16.65837802 -8.00205149 14.28616349 -10 11 C-13.9675492 8.18431992 -17.98211152 8.32140768 -22 11 Z " fill="#205B5B" transform="translate(737,117)"/>
<path d="M0 0 C6.65686578 6.98159094 6.94389486 14.8238761 6.828125 24.046875 C6.24908023 31.98319446 4.05979914 37.72771652 -1.75 43.25 C-8.71850209 48.79080898 -15.77126253 49.46758326 -24.4375 48.6875 C-30.17652111 47.53789953 -35.78375828 45.47401271 -39.4375 40.6875 C-44.15372642 32.12189252 -44.75545627 22.55101075 -42.9296875 13.04296875 C-41.23511615 7.32622518 -38.57981286 1.78449986 -33.51171875 -1.59765625 C-23.20554503 -7.01276447 -9.58195123 -7.35248733 0 0 Z M-25.4375 9.6875 C-28.45395925 15.43313666 -28.33633521 22.87668496 -26.8671875 29.10546875 C-25.58602541 32.8073529 -24.74965789 34.47939474 -21.4375 36.6875 C-18.5225745 37.2713196 -18.5225745 37.2713196 -15.4375 36.6875 C-12.01185178 33.94698142 -10.19184811 31.98028514 -9.4375 27.6875 C-8.87407926 20.70975084 -9.23951868 14.96924901 -12.4375 8.6875 C-16.86668138 5.25845635 -21.27760743 6.40337429 -25.4375 9.6875 Z " fill="#205B5B" transform="translate(686.4375,119.3125)"/>
<path d="M0 0 C3.87483277 3.1882726 6.00647664 7.12270351 7 12 C7.94192709 22.78144234 7.94192709 22.78144234 5.33740234 26.15087891 C2.38634355 28.48546417 0.86627457 28.46665866 -2.859375 28.390625 C-3.97441406 28.37773437 -5.08945312 28.36484375 -6.23828125 28.3515625 C-7.97658203 28.30128906 -7.97658203 28.30128906 -9.75 28.25 C-10.92433594 28.23195312 -12.09867187 28.21390625 -13.30859375 28.1953125 C-16.2065534 28.1481912 -19.10286418 28.08241305 -22 28 C-21.40844669 29.31823302 -20.80128537 30.62947051 -20.1875 31.9375 C-19.85105469 32.66839844 -19.51460938 33.39929688 -19.16796875 34.15234375 C-18.06399866 36.33029489 -18.06399866 36.33029489 -15 37 C-8.65020979 37.4849751 -3.08492254 36.80294001 3 35 C6.05423406 41.35280685 6.05423406 41.35280685 5.82421875 44.09765625 C4.74463903 46.58938765 3.6913252 47.0632055 1.25 48.1875 C0.23679687 48.67283203 0.23679687 48.67283203 -0.796875 49.16796875 C-8.84742555 52.20833625 -18.05695803 52.01504446 -26.0625 48.984375 C-29.0038049 47.49000235 -30.90949915 45.52089808 -33 43 C-33.556875 42.38125 -34.11375 41.7625 -34.6875 41.125 C-39.12557737 33.93954141 -38.68679407 25.1143448 -38 17 C-36.31924463 9.9771681 -33.37006851 4.95356355 -27.30078125 0.8515625 C-18.79642508 -4.35066839 -8.87014415 -4.51971085 0 0 Z M-21 14 C-21.65567893 16.09939756 -21.65567893 16.09939756 -22 18 C-20.06257659 18.02703381 -18.12504521 18.04641125 -16.1875 18.0625 C-14.56908203 18.07990234 -14.56908203 18.07990234 -12.91796875 18.09765625 C-9.93487831 18.13624766 -9.93487831 18.13624766 -7 17 C-7.35994553 14.3364031 -7.71161002 12.41816548 -9.25 10.1875 C-14.37540454 6.70954692 -17.57976467 9.81971237 -21 14 Z " fill="#205B5B" transform="translate(485,117)"/>
<path d="M0 0 C0 13.53 0 27.06 0 41 C1.65 41.66 3.3 42.32 5 43 C6 45 6 45 5 53 C-3.25 53 -11.5 53 -20 53 C-21.60725635 49.78548731 -21.05748185 46.56387464 -21 43 C-19.35 42.34 -17.7 41.68 -16 41 C-16 31.76 -16 22.52 -16 13 C-18.475 12.01 -18.475 12.01 -21 11 C-21.125 3.25 -21.125 3.25 -20 1 C-13.66754392 -1.11081869 -6.6749948 0 0 0 Z " fill="#205B5B" transform="translate(573,114)"/>
<path d="M0 0 C2.31 0 4.62 0 7 0 C7.23710693 0.60062256 7.47421387 1.20124512 7.71850586 1.82006836 C8.78882572 4.5269469 9.86310775 7.23223541 10.9375 9.9375 C11.31068359 10.88302734 11.68386719 11.82855469 12.06835938 12.80273438 C12.42607422 13.70185547 12.78378906 14.60097656 13.15234375 15.52734375 C13.6472229 16.77632446 13.6472229 16.77632446 14.15209961 18.05053711 C14.84347269 19.96560634 14.84347269 19.96560634 16 21 C18.64 14.07 21.28 7.14 24 0 C26.31 0 28.62 0 31 0 C31 10.23 31 20.46 31 31 C29.35 31 27.7 31 26 31 C25.67 25.72 25.34 20.44 25 15 C23.06758953 19.89035869 23.06758953 19.89035869 21.14086914 24.78295898 C19.11111111 29.88888889 19.11111111 29.88888889 18 31 C16.35 31 14.7 31 13 31 C10.69 25.72 8.38 20.44 6 15 C6 20.28 6 25.56 6 31 C4.02 31 2.04 31 0 31 C0 20.77 0 10.54 0 0 Z " fill="#CBE7C8" transform="translate(357,191)"/>
<path d="M0 0 C1.03769531 -0.01417969 2.07539062 -0.02835938 3.14453125 -0.04296875 C6.1875 0.1875 6.1875 0.1875 8.88671875 1.32421875 C10.02560547 1.75154297 10.02560547 1.75154297 11.1875 2.1875 C12.1775 1.5275 13.1675 0.8675 14.1875 0.1875 C18.07111915 -0.40348552 19.63875407 -0.20503359 22.86328125 2.1015625 C26.11910728 6.42442395 25.75455206 9.74839521 25.5 15 C25.47744141 15.88365234 25.45488281 16.76730469 25.43164062 17.67773438 C25.37297428 19.8483891 25.28329979 22.0181669 25.1875 24.1875 C23.5375 24.1875 21.8875 24.1875 20.1875 24.1875 C20.12691406 23.05570313 20.06632813 21.92390625 20.00390625 20.7578125 C19.91950083 19.27602855 19.83485283 17.7942584 19.75 16.3125 C19.71068359 15.56613281 19.67136719 14.81976563 19.63085938 14.05078125 C19.47176376 9.98763136 19.47176376 9.98763136 18.1875 6.1875 C16.5375 6.5175 14.8875 6.8475 13.1875 7.1875 C12.8575 12.7975 12.5275 18.4075 12.1875 24.1875 C10.2075 24.1875 8.2275 24.1875 6.1875 24.1875 C5.8575 18.5775 5.5275 12.9675 5.1875 7.1875 C3.5375 6.8575 1.8875 6.5275 0.1875 6.1875 C-1.93175604 8.30675604 -1.23081017 12.8071093 -1.375 15.75 C-1.41818359 16.55630859 -1.46136719 17.36261719 -1.50585938 18.19335938 C-1.61225262 20.19118805 -1.71290888 22.1893207 -1.8125 24.1875 C-3.7925 24.1875 -5.7725 24.1875 -7.8125 24.1875 C-7.8125 16.5975 -7.8125 9.0075 -7.8125 1.1875 C-5.13017173 -0.15366414 -2.99417741 0.01845979 0 0 Z " fill="#CBE7C8" transform="translate(702.8125,197.8125)"/>
<path d="M0 0 C1.65 0 3.3 0 5 0 C6 1 6 1 6.11352539 4.05102539 C6.11336634 5.39991271 6.10767612 6.74880614 6.09765625 8.09765625 C6.0962413 8.80651474 6.09482635 9.51537323 6.09336853 10.24571228 C6.08775443 12.51801712 6.07519963 14.79022475 6.0625 17.0625 C6.05748681 18.59960796 6.05292359 20.13671745 6.04882812 21.67382812 C6.03778042 25.44925642 6.02050641 29.22461171 6 33 C3.74762072 33.22908735 1.49328299 33.43898036 -0.76171875 33.640625 C-2.01686279 33.75954102 -3.27200684 33.87845703 -4.56518555 34.00097656 C-7.98117219 34.00000535 -9.24033119 33.88353803 -11.8125 31.75 C-15.4888474 27.12830613 -15.56124402 22.69261792 -15 17 C-13.42044506 13.36702364 -11.59805344 10.75040438 -8 9 C-5.22979669 9.05848798 -2.74333383 9.49705546 0 10 C0 6.7 0 3.4 0 0 Z M-7.73046875 15.21875 C-9.33094188 17.46433692 -9.37178422 18.76380528 -9.3125 21.5 C-9.30863281 22.2734375 -9.30476563 23.046875 -9.30078125 23.84375 C-9.11825461 26.29324946 -9.11825461 26.29324946 -7 29 C-4.5 29.41666667 -4.5 29.41666667 -2 29 C0.25075045 27.16888152 0.25075045 27.16888152 0.265625 24.46875 C0.26046875 23.4890625 0.2553125 22.509375 0.25 21.5 C0.25515625 20.5203125 0.2603125 19.540625 0.265625 18.53125 C0.25075045 15.83111848 0.25075045 15.83111848 -2 14 C-5.80770776 13.61612442 -5.80770776 13.61612442 -7.73046875 15.21875 Z " fill="#CBE7C8" transform="translate(434,189)"/>
<path d="M0 0 C1.2065625 0.2475 1.2065625 0.2475 2.4375 0.5 C4.97658116 1.26597109 4.97658116 1.26597109 7 0 C10.69243155 -0.41027017 12.51957129 -0.28388969 15.75 1.625 C18.8919104 4.94146097 19.96636047 7.62000334 20.03125 12.2109375 C19.69443795 17.27995882 18.7668455 20.34730133 15 24 C12.26094655 25.36952673 10.02912668 25.12621361 7 25 C6.34 24.67 5.68 24.34 5 24 C5 26.97 5 29.94 5 33 C3.02 33 1.04 33 -1 33 C-1.02465392 28.46102295 -1.04283789 23.92208457 -1.05493164 19.38305664 C-1.0599714 17.83780234 -1.0668032 16.29255284 -1.07543945 14.74731445 C-1.08752076 12.53074971 -1.09323173 10.31424782 -1.09765625 8.09765625 C-1.10281754 7.4028566 -1.10797882 6.70805695 -1.11329651 5.99220276 C-1.11349277 4.3277067 -1.06189129 2.66334501 -1 1 C-0.67 0.67 -0.34 0.34 0 0 Z M5 6 C4.97314062 8.14576637 4.95366912 10.29162645 4.9375 12.4375 C4.92589844 13.63246094 4.91429687 14.82742187 4.90234375 16.05859375 C4.66098208 18.88873341 4.66098208 18.88873341 6 20 C8.41537838 20.41717279 8.41537838 20.41717279 11 20 C13.7489728 17.63019586 13.98650259 16.12597587 14.375 12.5 C13.98819104 8.88978305 13.68993304 7.40172593 11 5 C7.2236068 4.7018576 7.2236068 4.7018576 5 6 Z " fill="#CBE7C8" transform="translate(564,198)"/>
<path d="M0 0 C1.98 0 3.96 0 6 0 C7.57079658 4.09181876 9.13726331 8.18526016 10.69970703 12.28027344 C11.2320421 13.67363368 11.76556577 15.0665404 12.30029297 16.45898438 C13.06789756 18.45845906 13.83123788 20.45951617 14.59375 22.4609375 C15.05458984 23.66540527 15.51542969 24.86987305 15.99023438 26.11083984 C17 29 17 29 17 31 C15.02 31 13.04 31 11 31 C10.34 28.69 9.68 26.38 9 24 C5.04 24 1.08 24 -3 24 C-3.66 26.31 -4.32 28.62 -5 31 C-6.98 31 -8.96 31 -11 31 C-8.96150996 23.80613443 -6.51843632 16.84290835 -3.8125 9.875 C-3.44447266 8.91851562 -3.07644531 7.96203125 -2.69726562 6.9765625 C-1.80144555 4.64975711 -0.90232227 2.32428979 0 0 Z M3 9 C2.3310968 10.47815662 1.66493641 11.95755472 1 13.4375 C0.443125 14.67306641 0.443125 14.67306641 -0.125 15.93359375 C-1.06498732 17.77946992 -1.06498732 17.77946992 -1 19 C1.64 19 4.28 19 7 19 C6.01 15.7 5.02 12.4 4 9 C3.67 9 3.34 9 3 9 Z " fill="#CBE7C8" transform="translate(542,191)"/>
<path d="M0 0 C1.2065625 0.2475 1.2065625 0.2475 2.4375 0.5 C4.97658116 1.26597109 4.97658116 1.26597109 7 0 C10.87214182 -0.43023798 12.52496371 -0.31669086 15.8125 1.875 C19.30908314 5.27168076 19.20956449 7.52870785 19.3125 12.3125 C19.34988281 13.44300781 19.38726563 14.57351562 19.42578125 15.73828125 C18.91605818 19.64304057 17.72790817 21.22148129 15 24 C12.26094655 25.36952673 10.02912668 25.12621361 7 25 C6.34 24.67 5.68 24.34 5 24 C4.67 26.97 4.34 29.94 4 33 C2.35 33 0.7 33 -1 33 C-1.02465392 28.46102295 -1.04283789 23.92208457 -1.05493164 19.38305664 C-1.0599714 17.83780234 -1.0668032 16.29255284 -1.07543945 14.74731445 C-1.08752076 12.53074971 -1.09323173 10.31424782 -1.09765625 8.09765625 C-1.10281754 7.4028566 -1.10797882 6.70805695 -1.11329651 5.99220276 C-1.11349277 4.3277067 -1.06189129 2.66334501 -1 1 C-0.67 0.67 -0.34 0.34 0 0 Z M5.26953125 6.18359375 C3.59009996 8.58647236 3.63179919 10.15320403 3.6875 13.0625 C3.69136719 13.94035156 3.69523438 14.81820312 3.69921875 15.72265625 C3.79100666 18.19662769 3.79100666 18.19662769 6 20 C8.45741537 20.50014953 8.45741537 20.50014953 11 20 C13.7489728 17.63019586 13.98650259 16.12597587 14.375 12.5 C13.98819104 8.88978305 13.68993304 7.40172593 11 5 C7.20084497 4.62363312 7.20084497 4.62363312 5.26953125 6.18359375 Z " fill="#CBE8C8" transform="translate(590,198)"/>
<path d="M0 0 C2.09879041 1.63716552 2.90801007 2.53693381 3.43237305 5.17651367 C3.45855713 5.99869385 3.48474121 6.82087402 3.51171875 7.66796875 C3.56489258 9.00698242 3.56489258 9.00698242 3.61914062 10.37304688 C3.64169922 11.30181641 3.66425781 12.23058594 3.6875 13.1875 C3.73874023 14.59805664 3.73874023 14.59805664 3.79101562 16.03710938 C3.87348218 18.35795393 3.94263403 20.67842148 4 23 C1.60425039 23.30436567 -0.78544825 23.56894313 -3.1875 23.8125 C-3.86103516 23.90208984 -4.53457031 23.99167969 -5.22851562 24.08398438 C-9.2087566 24.45288476 -10.7600076 24.18187905 -13.984375 21.73828125 C-16 19 -16 19 -16.0625 15.375 C-15 12 -15 12 -13.5 10.125 C-9.78545754 8.45345589 -6.03474934 8.25001652 -2 8 C-2.33 6.68 -2.66 5.36 -3 4 C-6.79547921 4.96776098 -6.79547921 4.96776098 -10 7 C-11.66617115 7.04063832 -13.33388095 7.042721 -15 7 C-14.73852205 3.77510528 -14.39459008 2.3699282 -12 0.125 C-7.8936026 -1.41489902 -4.20365926 -1.24377933 0 0 Z M-9 13 C-9.33 14.65 -9.66 16.3 -10 18 C-7.64632287 18.6878236 -7.64632287 18.6878236 -5 19 C-4.01 18.34 -3.02 17.68 -2 17 C-2 15.68 -2 14.36 -2 13 C-4.31 13 -6.62 13 -9 13 Z " fill="#CBE8C8" transform="translate(498,199)"/>
<path d="M0 0 C3.1560145 1.36282444 4.6103711 2.31351098 6.3125 5.3125 C7 8 7 8 7 14 C2.05 14 -2.9 14 -8 14 C-7.01 15.65 -6.02 17.3 -5 19 C-0.35413108 18.51515724 -0.35413108 18.51515724 4 17 C4.99 17.99 5.98 18.98 7 20 C2.28043776 24.87688098 2.28043776 24.87688098 -2.25 25.3125 C-6.72919794 24.93923351 -8.6471003 23.96302765 -12 21 C-14.56693325 16.08934508 -14.01863105 12.26292711 -13 7 C-12.04126594 4.04390332 -11.22282545 3.17330869 -8.75 1.25 C-5.49298585 -0.23046098 -3.54404961 -0.4430062 0 0 Z M-5 5 C-6.485 7.475 -6.485 7.475 -8 10 C-5.03 10 -2.06 10 1 10 C0.67 8.68 0.34 7.36 0 6 C-1.65 5.67 -3.3 5.34 -5 5 Z " fill="#CBE8C8" transform="translate(408,198)"/>
<path d="M0 0 C4.35579981 4.5735898 4 6.33147473 4 13 C-0.95 13 -5.9 13 -11 13 C-10.01 14.65 -9.02 16.3 -8 18 C-4.04936331 18.5883927 -1.39070093 18.08658519 2 16 C2.66 17.32 3.32 18.64 4 20 C1.08427978 23.19340786 -0.99547894 23.92559103 -5.375 24.25 C-9.26399436 23.98179349 -10.98378462 23.4129723 -14 21 C-16.90517209 16.35581646 -16.7651086 11.2945515 -16 6 C-12.64347852 -0.66140416 -6.92833093 -2.24438889 0 0 Z M-8 4 C-9.78969026 6.42672567 -9.78969026 6.42672567 -11 9 C-7.7 9 -4.4 9 -1 9 C-2.21030974 6.42672567 -2.21030974 6.42672567 -4 4 C-5.32 4 -6.64 4 -8 4 Z " fill="#CBE7C8" transform="translate(750,199)"/>
<path d="M0 0 C4.18735991 3.52118902 4.61316517 5.87573433 5.125 11.25 C5.01168312 15.53175938 3.55341422 18.04185008 0.75 21.3125 C-3.01755254 23.67909288 -5.83099811 23.50881276 -10.125 22.9296875 C-13.36320256 21.98918014 -14.59006328 20.14822522 -16.25 17.3125 C-17.98591152 13.84067697 -17.71571673 10.10841036 -17.25 6.3125 C-15.61368153 3.098303 -14.27691088 1.06556798 -11.375 -1.0625 C-6.91101668 -2.37543627 -4.15251637 -2.15611427 0 0 Z M-9.98046875 4.53125 C-11.58094188 6.77683692 -11.62178422 8.07630528 -11.5625 10.8125 C-11.55863281 11.5859375 -11.55476562 12.359375 -11.55078125 13.15625 C-11.36825461 15.60574946 -11.36825461 15.60574946 -9.25 18.3125 C-6.9068787 18.05688677 -4.57156597 17.71979228 -2.25 17.3125 C-1.08656773 14.98563547 -1.05104012 13.46528587 -1 10.875 C-0.97421875 10.09253906 -0.9484375 9.31007812 -0.921875 8.50390625 C-1.09041428 6.25307879 -1.09041428 6.25307879 -2.515625 4.52734375 C-5.15047885 2.68175918 -7.34925777 2.67811721 -9.98046875 4.53125 Z " fill="#CBE7C8" transform="translate(631.25,199.6875)"/>
<path d="M0 0 C2.93405245 0.67946729 2.93405245 0.67946729 6.375 -0.0625 C9.83953322 -0.50344059 11.04881775 -0.51961395 13.8125 1.5 C15.01279908 3.90059817 14.92709743 5.39360649 14.91015625 8.0703125 C14.90693359 8.96621094 14.90371094 9.86210937 14.90039062 10.78515625 C14.89201172 11.72230469 14.88363281 12.65945312 14.875 13.625 C14.87048828 14.56988281 14.86597656 15.51476562 14.86132812 16.48828125 C14.84952357 18.82558387 14.83305759 21.16276061 14.8125 23.5 C13.1625 23.5 11.5125 23.5 9.8125 23.5 C9.4825 17.89 9.1525 12.28 8.8125 6.5 C7.1625 6.17 5.5125 5.84 3.8125 5.5 C1.69324396 7.61925604 2.39418983 12.1196093 2.25 15.0625 C2.20681641 15.86880859 2.16363281 16.67511719 2.11914062 17.50585938 C2.01274738 19.50368805 1.91209112 21.5018207 1.8125 23.5 C-0.1675 23.5 -2.1475 23.5 -4.1875 23.5 C-4.1875 15.91 -4.1875 8.32 -4.1875 0.5 C-2.1875 -0.5 -2.1875 -0.5 0 0 Z " fill="#CBE7C8" transform="translate(763.1875,198.5)"/>
<path d="M0 0 C1.2065625 0.2475 1.2065625 0.2475 2.4375 0.5 C4.97658116 1.26597109 4.97658116 1.26597109 7 0 C10.85546909 -0.51406255 12.47418205 -0.37481775 15.6796875 1.91015625 C18.9286169 6.23659254 18.56702207 9.56151399 18.3125 14.8125 C18.28994141 15.69615234 18.26738281 16.57980469 18.24414062 17.49023438 C18.18547428 19.6608891 18.09579979 21.8306669 18 24 C16.02 24 14.04 24 12 24 C11.67 18.06 11.34 12.12 11 6 C9.02 6 7.04 6 5 6 C4.67 11.94 4.34 17.88 4 24 C2.35 24 0.7 24 -1 24 C-1.02887236 20.18751574 -1.04675492 16.3750593 -1.0625 12.5625 C-1.07087891 11.47388672 -1.07925781 10.38527344 -1.08789062 9.26367188 C-1.09111328 8.22919922 -1.09433594 7.19472656 -1.09765625 6.12890625 C-1.10289307 5.17056885 -1.10812988 4.21223145 -1.11352539 3.22485352 C-1 1 -1 1 0 0 Z " fill="#CBE7C8" transform="translate(655,198)"/>
<path d="M0 0 C2.5625 2.3125 2.5625 2.3125 4 5 C4 6.32 4 7.64 4 9 C2.35 9 0.7 9 -1 9 C-1.33 7.68 -1.66 6.36 -2 5 C-4.91634129 4.7497843 -4.91634129 4.7497843 -8 5 C-10.45811625 8.68717438 -10.31118164 10.64345704 -10 15 C-9.34 15.99 -8.68 16.98 -8 18 C-5.5 18.5 -5.5 18.5 -3 18 C-2.34 17.01 -1.68 16.02 -1 15 C1.625 14.8125 1.625 14.8125 4 15 C3.49684563 18.72334237 2.9533007 20.63335948 0 23 C-4.19793252 24.2420849 -7.87075535 24.45650316 -11.9375 22.8125 C-14.82570914 20.27437682 -15.86106308 18.21073604 -16.30078125 14.37890625 C-16.34105813 4.69902865 -16.34105813 4.69902865 -13 1 C-8.67176576 -1.66352877 -4.7889248 -1.3707748 0 0 Z " fill="#CBE7C8" transform="translate(474,199)"/>
<path d="M0 0 C3 1.5 3 1.5 5 4 C5.79867423 7.74762522 5.43023654 10.881385 4.0625 14.4375 C0.72245738 16.96783532 -2.87933493 17.20964787 -7 17 C-9.49058663 15.85848113 -11.0896056 14.9103944 -13 13 C-13.43364732 9.94588386 -13.45877153 7.05136412 -13 4 C-9.5163362 -0.46344424 -5.32577438 -1.03079504 0 0 Z " fill="#205B5B" transform="translate(569,93)"/>
<path d="M0 0 C1.98 0 3.96 0 6 0 C6.33 1.65 6.66 3.3 7 5 C7.99 5.33 8.98 5.66 10 6 C10 7.32 10 8.64 10 10 C8.68 10 7.36 10 6 10 C6 14.95 6 19.9 6 25 C7.32 25 8.64 25 10 25 C9.67 26.65 9.34 28.3 9 30 C5.625 29.6875 5.625 29.6875 2 29 C-0.52775351 25.20836973 -0.22443035 22.19125969 -0.125 17.8125 C-0.11597656 17.06291016 -0.10695313 16.31332031 -0.09765625 15.54101562 C-0.07412578 13.69387346 -0.03825561 11.84689588 0 10 C-1.32 10 -2.64 10 -4 10 C-3.67 8.35 -3.34 6.7 -3 5 C-2.34 5 -1.68 5 -1 5 C-0.67 3.35 -0.34 1.7 0 0 Z " fill="#CBE7C8" transform="translate(786,193)"/>
<path d="M0 0 C5.94 0 11.88 0 18 0 C17.63953488 8.0503876 17.63953488 8.0503876 14.9375 12.0625 C10.80481786 14.78831162 8.89232619 14.77655971 4 14 C1.5 12.0625 1.5 12.0625 0 9 C0 6.03 0 3.06 0 0 Z " fill="#C3E0C3" transform="translate(283,105)"/>
<path d="M0 0 C1.65 0 3.3 0 5 0 C5.33 1.65 5.66 3.3 6 5 C6.99 5.33 7.98 5.66 9 6 C9 7.32 9 8.64 9 10 C7.68 10 6.36 10 5 10 C5 14.95 5 19.9 5 25 C6.32 25 7.64 25 9 25 C9 26.65 9 28.3 9 30 C3.48968706 30.3673542 3.48968706 30.3673542 1.3190918 28.73901367 C-0.28288089 26.62706633 -0.35212199 25.6107416 -0.29296875 22.98828125 C-0.28330078 22.23095703 -0.27363281 21.47363281 -0.26367188 20.69335938 C-0.23853516 19.90767578 -0.21339844 19.12199219 -0.1875 18.3125 C-0.16719727 17.11657227 -0.16719727 17.11657227 -0.14648438 15.89648438 C-0.11117089 13.93070033 -0.05736447 11.96526418 0 10 C-1.32 10 -2.64 10 -4 10 C-3.67 8.35 -3.34 6.7 -3 5 C-2.34 5 -1.68 5 -1 5 C-0.67 3.35 -0.34 1.7 0 0 Z " fill="#CBE7C8" transform="translate(681,193)"/>
<path d="M0 0 C1.98 0 3.96 0 6 0 C6 10.89 6 21.78 6 33 C4.02 33 2.04 33 0 33 C0 22.11 0 11.22 0 0 Z " fill="#CCE8C8" transform="translate(508,189)"/>
<path d="M0 0 C2.375 1.0625 2.375 1.0625 4 3 C4.58004676 6.98782145 4.63226055 9.08673477 2.3125 12.4375 C0 14 0 14 -2.5 14.5 C-5.90524375 13.81895125 -7.02547983 12.8520847 -9 10 C-9.42841969 6.51143969 -9.66830867 4.15097604 -7.875 1.0625 C-5.09808875 -0.51108304 -3.13770673 -0.38420899 0 0 Z " fill="#C3E0C3" transform="translate(181,125)"/>
<path d="M0 0 C0 7.59 0 15.18 0 23 C-1.98 23 -3.96 23 -6 23 C-6 15.41 -6 7.82 -6 0 C-4 -1 -4 -1 0 0 Z " fill="#CBE7C8" transform="translate(452,199)"/>
<path d="M0 0 C1.98 0.495 1.98 0.495 4 1 C4 8.59 4 16.18 4 24 C2.35 24 0.7 24 -1 24 C-1.02887236 20.18751574 -1.04675492 16.3750593 -1.0625 12.5625 C-1.07087891 11.47388672 -1.07925781 10.38527344 -1.08789062 9.26367188 C-1.09111328 8.22919922 -1.09433594 7.19472656 -1.09765625 6.12890625 C-1.10289307 5.17056885 -1.10812988 4.21223145 -1.11352539 3.22485352 C-1 1 -1 1 0 0 Z " fill="#CCE8C9" transform="translate(643,198)"/>
<path d="M0 0 C2.0625 0.4375 2.0625 0.4375 4 1 C4 2.65 4 4.3 4 6 C3.01 6.33 2.02 6.66 1 7 C0.01 6.34 -0.98 5.68 -2 5 C-1.125 1.125 -1.125 1.125 0 0 Z " fill="#CBE8C8" transform="translate(448,190)"/>
<path d="M0 0 C0.99 0.33 1.98 0.66 3 1 C3 2.65 3 4.3 3 6 C2.01 6.33 1.02 6.66 0 7 C-0.99 6.34 -1.98 5.68 -3 5 C-2.625 3.0625 -2.625 3.0625 -2 1 C-1.34 0.67 -0.68 0.34 0 0 Z " fill="#CCE8C8" transform="translate(644,190)"/>
</svg>
