<?xml version="1.0" encoding="UTF-8"?>
<svg xmlns="http://www.w3.org/2000/svg" xmlns:xlink="http://www.w3.org/1999/xlink" width="38px" height="38px" viewBox="0 0 38 38" version="1.1">
<g id="surface1">
<path style=" stroke:none;fill-rule:nonzero;fill:rgb(12.941177%,36.078432%,36.078432%);fill-opacity:1;" d="M 11.300781 14.144531 C 11.375 14.195312 11.410156 14.261719 11.4375 14.34375 C 11.449219 14.414062 11.449219 14.480469 11.449219 14.550781 C 11.449219 14.570312 11.449219 14.589844 11.449219 14.609375 C 11.449219 14.648438 11.449219 14.6875 11.449219 14.730469 C 11.449219 14.792969 11.449219 14.851562 11.449219 14.914062 C 11.449219 14.953125 11.449219 14.992188 11.449219 15.03125 C 11.449219 15.050781 11.449219 15.070312 11.449219 15.089844 C 11.445312 15.203125 11.429688 15.292969 11.363281 15.390625 C 11.296875 15.445312 11.21875 15.46875 11.132812 15.476562 C 11.046875 15.464844 10.988281 15.449219 10.925781 15.390625 C 10.851562 15.292969 10.839844 15.203125 10.847656 15.085938 C 10.691406 15.089844 10.5625 15.105469 10.429688 15.199219 C 10.328125 15.308594 10.3125 15.410156 10.3125 15.554688 C 10.320312 15.714844 10.347656 15.871094 10.371094 16.03125 C 10.378906 16.089844 10.386719 16.152344 10.394531 16.210938 C 10.453125 16.613281 10.453125 16.613281 10.597656 16.988281 C 10.601562 17.003906 10.609375 17.015625 10.617188 17.027344 C 10.832031 17.429688 11.164062 17.695312 11.589844 17.839844 C 11.609375 17.847656 11.625 17.851562 11.644531 17.859375 C 12.066406 17.996094 12.519531 17.910156 12.90625 17.714844 C 13.316406 17.484375 13.582031 17.140625 13.714844 16.691406 C 13.757812 16.542969 13.777344 16.386719 13.796875 16.234375 C 13.800781 16.199219 13.808594 16.167969 13.8125 16.136719 C 13.824219 16.058594 13.835938 15.984375 13.84375 15.90625 C 13.851562 15.867188 13.855469 15.828125 13.863281 15.785156 C 13.867188 15.761719 13.871094 15.738281 13.871094 15.714844 C 13.878906 15.683594 13.878906 15.683594 13.882812 15.652344 C 13.902344 15.503906 13.898438 15.386719 13.8125 15.257812 C 13.714844 15.148438 13.613281 15.101562 13.464844 15.09375 C 13.445312 15.089844 13.425781 15.089844 13.402344 15.089844 C 13.386719 15.085938 13.371094 15.085938 13.355469 15.085938 C 13.359375 15.105469 13.359375 15.125 13.363281 15.144531 C 13.363281 15.230469 13.328125 15.296875 13.28125 15.371094 C 13.199219 15.449219 13.132812 15.472656 13.015625 15.472656 C 12.929688 15.460938 12.867188 15.414062 12.808594 15.351562 C 12.773438 15.289062 12.765625 15.234375 12.765625 15.164062 C 12.765625 15.144531 12.765625 15.128906 12.765625 15.109375 C 12.765625 15.078125 12.765625 15.078125 12.761719 15.046875 C 12.761719 15.027344 12.761719 15.007812 12.761719 14.984375 C 12.761719 14.941406 12.761719 14.898438 12.761719 14.851562 C 12.761719 14.785156 12.761719 14.71875 12.761719 14.652344 C 12.761719 14.609375 12.761719 14.566406 12.761719 14.523438 C 12.757812 14.503906 12.757812 14.484375 12.757812 14.464844 C 12.757812 14.347656 12.765625 14.28125 12.84375 14.191406 C 12.925781 14.121094 13 14.109375 13.105469 14.113281 C 13.191406 14.121094 13.242188 14.175781 13.304688 14.230469 C 13.355469 14.316406 13.355469 14.402344 13.355469 14.496094 C 13.375 14.496094 13.394531 14.496094 13.414062 14.496094 C 13.671875 14.484375 13.882812 14.539062 14.097656 14.6875 C 14.125 14.707031 14.125 14.707031 14.15625 14.726562 C 14.355469 14.90625 14.480469 15.15625 14.5 15.421875 C 14.503906 15.632812 14.472656 15.835938 14.445312 16.046875 C 14.433594 16.109375 14.425781 16.171875 14.417969 16.234375 C 14.316406 16.960938 14.09375 17.601562 13.492188 18.0625 C 13.195312 18.277344 13.195312 18.277344 13.109375 18.277344 C 13.109375 18.292969 13.105469 18.304688 13.105469 18.320312 C 13.019531 19.175781 13.019531 19.175781 12.738281 19.4375 C 12.636719 19.519531 12.527344 19.578125 12.40625 19.628906 C 12.40625 19.652344 12.40625 19.652344 12.40625 19.679688 C 12.40625 20.097656 12.40625 20.519531 12.402344 20.9375 C 12.402344 21.140625 12.402344 21.34375 12.402344 21.546875 C 12.398438 21.726562 12.398438 21.902344 12.398438 22.078125 C 12.398438 22.171875 12.398438 22.265625 12.398438 22.359375 C 12.398438 22.449219 12.398438 22.539062 12.394531 22.625 C 12.394531 22.65625 12.394531 22.691406 12.394531 22.722656 C 12.398438 23.058594 12.332031 23.34375 12.089844 23.59375 C 11.875 23.800781 11.617188 23.914062 11.316406 23.929688 C 11.007812 23.917969 10.742188 23.792969 10.519531 23.578125 C 10.449219 23.5 10.398438 23.425781 10.355469 23.332031 C 10.347656 23.316406 10.339844 23.304688 10.332031 23.289062 C 10.226562 23.074219 10.234375 22.847656 10.234375 22.609375 C 10.230469 22.445312 10.214844 22.300781 10.109375 22.164062 C 9.988281 22.066406 9.882812 22.007812 9.722656 22.015625 C 9.585938 22.03125 9.472656 22.085938 9.386719 22.191406 C 9.304688 22.300781 9.289062 22.371094 9.289062 22.503906 C 9.28125 22.90625 9.269531 23.28125 8.976562 23.59375 C 8.746094 23.804688 8.464844 23.933594 8.148438 23.925781 C 7.847656 23.894531 7.570312 23.78125 7.367188 23.550781 C 7.230469 23.367188 7.105469 23.152344 7.136719 22.917969 C 7.136719 22.898438 7.140625 22.875 7.144531 22.855469 C 7.199219 22.4375 7.238281 21.96875 6.972656 21.617188 C 6.75 21.335938 6.480469 21.09375 6.214844 20.859375 C 6.082031 20.738281 5.949219 20.613281 5.820312 20.492188 C 5.683594 20.363281 5.550781 20.238281 5.414062 20.113281 C 5.394531 20.097656 5.371094 20.078125 5.351562 20.058594 C 5.3125 20.023438 5.273438 19.988281 5.234375 19.957031 C 4.925781 19.675781 4.75 19.289062 4.726562 18.875 C 4.722656 18.410156 4.867188 18 5.191406 17.664062 C 5.523438 17.335938 5.914062 17.207031 6.375 17.207031 C 6.757812 17.210938 7.109375 17.355469 7.390625 17.613281 C 7.453125 17.585938 7.507812 17.546875 7.5625 17.503906 C 7.921875 17.238281 8.363281 17.160156 8.800781 17.222656 C 9.195312 17.300781 9.542969 17.523438 9.785156 17.84375 C 10.046875 18.230469 10.152344 18.671875 10.058594 19.132812 C 9.96875 19.546875 9.714844 19.847656 9.40625 20.125 C 9.367188 20.15625 9.328125 20.191406 9.292969 20.226562 C 9.28125 20.234375 9.273438 20.242188 9.261719 20.253906 C 9.125 20.378906 8.988281 20.503906 8.851562 20.632812 C 8.742188 20.738281 8.632812 20.839844 8.519531 20.941406 C 7.917969 21.449219 7.917969 21.449219 7.671875 22.167969 C 7.65625 22.480469 7.636719 22.914062 7.84375 23.164062 C 7.960938 23.265625 8.070312 23.320312 8.226562 23.3125 C 8.371094 23.292969 8.476562 23.234375 8.570312 23.121094 C 8.644531 23.007812 8.667969 22.921875 8.667969 22.78125 C 8.667969 22.757812 8.667969 22.730469 8.667969 22.703125 C 8.667969 22.664062 8.671875 22.621094 8.671875 22.582031 C 8.671875 22.253906 8.753906 21.960938 8.984375 21.71875 C 9.21875 21.5 9.488281 21.398438 9.808594 21.40625 C 10.105469 21.429688 10.335938 21.542969 10.546875 21.753906 C 10.5625 21.769531 10.5625 21.769531 10.578125 21.789062 C 10.820312 22.042969 10.835938 22.382812 10.839844 22.714844 C 10.84375 22.90625 10.859375 23.0625 11 23.199219 C 11.121094 23.285156 11.246094 23.324219 11.394531 23.304688 C 11.53125 23.273438 11.648438 23.203125 11.726562 23.089844 C 11.800781 22.945312 11.789062 22.789062 11.789062 22.628906 C 11.789062 22.59375 11.789062 22.5625 11.789062 22.527344 C 11.789062 22.441406 11.789062 22.351562 11.789062 22.261719 C 11.789062 22.171875 11.789062 22.078125 11.785156 21.984375 C 11.785156 21.808594 11.785156 21.632812 11.785156 21.457031 C 11.785156 21.257812 11.785156 21.058594 11.785156 20.859375 C 11.78125 20.449219 11.78125 20.039062 11.78125 19.628906 C 11.765625 19.621094 11.75 19.613281 11.734375 19.605469 C 11.710938 19.59375 11.691406 19.585938 11.671875 19.574219 C 11.640625 19.558594 11.640625 19.558594 11.609375 19.542969 C 11.410156 19.4375 11.257812 19.234375 11.191406 19.019531 C 11.136719 18.78125 11.089844 18.523438 11.097656 18.277344 C 11.078125 18.273438 11.0625 18.269531 11.046875 18.261719 C 10.613281 18.105469 10.25 17.675781 10.050781 17.273438 C 9.902344 16.953125 9.839844 16.625 9.789062 16.277344 C 9.777344 16.210938 9.769531 16.144531 9.757812 16.078125 C 9.652344 15.375 9.652344 15.375 9.765625 15.125 C 9.773438 15.109375 9.777344 15.09375 9.785156 15.078125 C 9.902344 14.808594 10.125 14.640625 10.390625 14.53125 C 10.539062 14.484375 10.695312 14.492188 10.847656 14.496094 C 10.847656 14.488281 10.847656 14.476562 10.84375 14.464844 C 10.839844 14.34375 10.863281 14.265625 10.945312 14.175781 C 11.050781 14.097656 11.183594 14.089844 11.300781 14.144531 Z M 11.300781 14.144531 "/>
<path style=" stroke:none;fill-rule:nonzero;fill:rgb(79.215688%,90.196079%,78.431374%);fill-opacity:1;" d="M 6.914062 17.972656 C 6.953125 18.003906 6.988281 18.035156 7.019531 18.074219 C 7.0625 18.125 7.113281 18.167969 7.167969 18.210938 C 7.199219 18.238281 7.199219 18.238281 7.242188 18.285156 C 7.335938 18.339844 7.421875 18.34375 7.523438 18.316406 C 7.625 18.253906 7.707031 18.167969 7.789062 18.089844 C 7.996094 17.890625 8.210938 17.789062 8.5 17.777344 C 8.753906 17.785156 9.015625 17.882812 9.203125 18.054688 C 9.425781 18.292969 9.511719 18.550781 9.503906 18.875 C 9.488281 19.324219 9.109375 19.625 8.8125 19.917969 C 8.78125 19.949219 8.746094 19.984375 8.714844 20.015625 C 8.648438 20.082031 8.585938 20.144531 8.519531 20.210938 C 8.433594 20.296875 8.347656 20.382812 8.265625 20.464844 C 8.199219 20.53125 8.132812 20.597656 8.070312 20.660156 C 8.039062 20.691406 8.007812 20.722656 7.976562 20.757812 C 7.929688 20.800781 7.886719 20.84375 7.84375 20.886719 C 7.832031 20.898438 7.816406 20.914062 7.804688 20.925781 C 7.792969 20.9375 7.78125 20.949219 7.769531 20.960938 C 7.757812 20.972656 7.75 20.980469 7.738281 20.992188 C 7.714844 21.015625 7.714844 21.015625 7.695312 21.015625 C 7.695312 20.8125 7.695312 20.613281 7.695312 20.40625 C 7.777344 20.363281 7.859375 20.316406 7.941406 20.273438 C 8.101562 20.136719 8.21875 19.953125 8.246094 19.742188 C 8.261719 19.441406 8.199219 19.257812 8.035156 19.015625 C 7.878906 18.859375 7.683594 18.765625 7.464844 18.765625 C 7.445312 18.765625 7.445312 18.765625 7.421875 18.765625 C 7.40625 18.765625 7.390625 18.765625 7.371094 18.765625 C 7.148438 18.769531 6.96875 18.84375 6.800781 19 C 6.617188 19.199219 6.5625 19.410156 6.566406 19.675781 C 6.578125 19.894531 6.679688 20.070312 6.824219 20.230469 C 6.914062 20.3125 6.914062 20.3125 7.125 20.40625 C 7.125 20.605469 7.125 20.808594 7.125 21.015625 C 6.976562 20.886719 6.976562 20.886719 6.921875 20.832031 C 6.910156 20.820312 6.898438 20.808594 6.886719 20.796875 C 6.875 20.785156 6.859375 20.773438 6.847656 20.757812 C 6.835938 20.746094 6.820312 20.730469 6.808594 20.71875 C 6.761719 20.671875 6.71875 20.628906 6.671875 20.582031 C 6.65625 20.570312 6.640625 20.554688 6.625 20.539062 C 6.542969 20.457031 6.460938 20.375 6.378906 20.292969 C 6.296875 20.210938 6.210938 20.125 6.128906 20.042969 C 6.0625 19.976562 6 19.914062 5.933594 19.847656 C 5.902344 19.816406 5.871094 19.785156 5.839844 19.753906 C 5.5625 19.480469 5.324219 19.222656 5.3125 18.8125 C 5.3125 18.507812 5.417969 18.273438 5.625 18.050781 C 6.011719 17.714844 6.484375 17.710938 6.914062 17.972656 Z M 6.914062 17.972656 "/>
<path style=" stroke:none;fill-rule:nonzero;fill:rgb(12.54902%,35.686275%,35.686275%);fill-opacity:1;" d="M 14.820312 18.144531 C 15.144531 18.144531 15.472656 18.144531 15.808594 18.144531 C 15.957031 18.546875 16.101562 18.945312 16.25 19.347656 C 16.265625 19.390625 16.28125 19.4375 16.300781 19.484375 C 16.5625 20.203125 16.5625 20.203125 16.566406 20.40625 C 16.585938 20.40625 16.605469 20.40625 16.625 20.40625 C 16.625 20.386719 16.621094 20.367188 16.621094 20.347656 C 16.621094 20.144531 16.710938 19.925781 16.78125 19.738281 C 16.804688 19.667969 16.832031 19.601562 16.855469 19.535156 C 16.859375 19.519531 16.867188 19.503906 16.871094 19.488281 C 16.925781 19.332031 16.980469 19.179688 17.03125 19.023438 C 17.035156 19.011719 17.039062 18.996094 17.046875 18.984375 C 17.089844 18.851562 17.136719 18.71875 17.183594 18.585938 C 17.199219 18.535156 17.21875 18.484375 17.234375 18.433594 C 17.246094 18.398438 17.257812 18.363281 17.269531 18.328125 C 17.277344 18.304688 17.285156 18.285156 17.292969 18.261719 C 17.300781 18.242188 17.304688 18.226562 17.3125 18.207031 C 17.328125 18.164062 17.328125 18.164062 17.347656 18.144531 C 17.375 18.144531 17.40625 18.144531 17.4375 18.144531 C 17.457031 18.144531 17.472656 18.144531 17.492188 18.144531 C 17.515625 18.144531 17.535156 18.144531 17.558594 18.144531 C 17.589844 18.144531 17.589844 18.144531 17.621094 18.144531 C 17.6875 18.144531 17.753906 18.144531 17.824219 18.144531 C 17.867188 18.144531 17.914062 18.144531 17.960938 18.144531 C 18.074219 18.144531 18.183594 18.144531 18.296875 18.144531 C 18.304688 18.171875 18.308594 18.199219 18.316406 18.226562 C 18.320312 18.242188 18.320312 18.257812 18.324219 18.273438 C 18.34375 18.351562 18.359375 18.425781 18.335938 18.507812 C 18.285156 18.554688 18.226562 18.589844 18.164062 18.621094 C 18.152344 18.625 18.140625 18.632812 18.125 18.640625 C 18.121094 19.265625 18.113281 19.894531 18.105469 20.539062 C 18.164062 20.558594 18.164062 20.558594 18.222656 20.578125 C 18.308594 20.621094 18.308594 20.621094 18.335938 20.671875 C 18.34375 20.792969 18.320312 20.914062 18.296875 21.03125 C 18.160156 21.035156 18.023438 21.035156 17.882812 21.035156 C 17.835938 21.035156 17.789062 21.035156 17.742188 21.035156 C 17.675781 21.035156 17.609375 21.035156 17.542969 21.035156 C 17.519531 21.035156 17.5 21.035156 17.476562 21.035156 C 17.449219 21.035156 17.449219 21.035156 17.417969 21.035156 C 17.394531 21.035156 17.394531 21.035156 17.367188 21.035156 C 17.328125 21.03125 17.328125 21.03125 17.308594 21.015625 C 17.300781 20.964844 17.292969 20.914062 17.289062 20.863281 C 17.289062 20.84375 17.285156 20.828125 17.28125 20.808594 C 17.277344 20.75 17.273438 20.707031 17.289062 20.652344 C 17.351562 20.59375 17.429688 20.539062 17.519531 20.539062 C 17.519531 20 17.519531 19.460938 17.519531 18.90625 C 17.460938 19.085938 17.40625 19.269531 17.347656 19.457031 C 17.300781 19.59375 17.253906 19.734375 17.210938 19.871094 C 17.195312 19.910156 17.183594 19.945312 17.171875 19.980469 C 17.054688 20.332031 16.933594 20.683594 16.816406 21.03125 C 16.621094 21.03125 16.425781 21.03125 16.226562 21.03125 C 16.117188 20.777344 16.117188 20.777344 16.082031 20.671875 C 16.074219 20.648438 16.066406 20.625 16.058594 20.601562 C 16.050781 20.578125 16.039062 20.550781 16.03125 20.527344 C 16.023438 20.5 16.011719 20.472656 16.003906 20.449219 C 15.980469 20.378906 15.953125 20.308594 15.929688 20.242188 C 15.890625 20.132812 15.855469 20.023438 15.816406 19.914062 C 15.804688 19.886719 15.796875 19.859375 15.785156 19.832031 C 15.722656 19.648438 15.65625 19.464844 15.589844 19.28125 C 15.535156 19.140625 15.484375 19 15.484375 18.847656 C 15.472656 18.847656 15.460938 18.847656 15.445312 18.847656 C 15.453125 18.859375 15.460938 18.875 15.464844 18.886719 C 15.492188 19.074219 15.488281 19.261719 15.488281 19.453125 C 15.488281 19.484375 15.488281 19.515625 15.488281 19.546875 C 15.488281 19.632812 15.488281 19.714844 15.484375 19.800781 C 15.484375 19.882812 15.484375 19.96875 15.484375 20.054688 C 15.484375 20.222656 15.484375 20.390625 15.484375 20.558594 C 15.5 20.5625 15.515625 20.5625 15.53125 20.566406 C 15.609375 20.582031 15.664062 20.625 15.714844 20.691406 C 15.730469 20.8125 15.699219 20.910156 15.675781 21.03125 C 15.398438 21.03125 15.125 21.03125 14.839844 21.03125 C 14.789062 20.757812 14.789062 20.757812 14.800781 20.691406 C 14.867188 20.609375 14.921875 20.578125 15.027344 20.558594 C 15.023438 19.925781 15.015625 19.292969 15.011719 18.640625 C 14.953125 18.609375 14.898438 18.578125 14.839844 18.542969 C 14.820312 18.523438 14.800781 18.507812 14.78125 18.488281 C 14.792969 18.375 14.808594 18.261719 14.820312 18.144531 Z M 14.820312 18.144531 "/>
<path style=" stroke:none;fill-rule:nonzero;fill:rgb(12.54902%,35.686275%,35.686275%);fill-opacity:1;" d="M 24.1875 18.144531 C 24.363281 18.144531 24.539062 18.144531 24.714844 18.144531 C 24.796875 18.144531 24.878906 18.140625 24.960938 18.140625 C 25.039062 18.140625 25.121094 18.140625 25.199219 18.140625 C 25.230469 18.140625 25.257812 18.140625 25.289062 18.140625 C 25.613281 18.140625 25.984375 18.144531 26.238281 18.371094 C 26.386719 18.535156 26.421875 18.746094 26.417969 18.960938 C 26.398438 19.121094 26.320312 19.238281 26.21875 19.359375 C 26.210938 19.371094 26.203125 19.382812 26.191406 19.394531 C 26.167969 19.421875 26.148438 19.449219 26.125 19.476562 C 26.136719 19.480469 26.152344 19.480469 26.164062 19.484375 C 26.308594 19.558594 26.390625 19.6875 26.449219 19.835938 C 26.519531 20.078125 26.527344 20.386719 26.410156 20.613281 C 26.296875 20.8125 26.113281 20.910156 25.902344 20.980469 C 25.699219 21.03125 25.503906 21.039062 25.292969 21.035156 C 25.261719 21.035156 25.230469 21.035156 25.199219 21.035156 C 25.113281 21.035156 25.03125 21.035156 24.945312 21.035156 C 24.863281 21.035156 24.777344 21.035156 24.691406 21.035156 C 24.523438 21.035156 24.355469 21.035156 24.1875 21.03125 C 24.179688 20.992188 24.175781 20.949219 24.167969 20.90625 C 24.164062 20.871094 24.164062 20.871094 24.15625 20.835938 C 24.144531 20.726562 24.144531 20.726562 24.148438 20.671875 C 24.214844 20.609375 24.273438 20.582031 24.359375 20.539062 C 24.363281 19.910156 24.371094 19.285156 24.378906 18.640625 C 24.339844 18.625 24.300781 18.613281 24.261719 18.601562 C 24.175781 18.554688 24.175781 18.554688 24.148438 18.507812 C 24.140625 18.382812 24.167969 18.265625 24.1875 18.144531 Z M 25.003906 18.621094 C 25.003906 18.851562 25.003906 19.082031 25.003906 19.324219 C 25.097656 19.324219 25.097656 19.324219 25.191406 19.328125 C 25.210938 19.328125 25.230469 19.328125 25.25 19.328125 C 25.394531 19.328125 25.523438 19.308594 25.648438 19.234375 C 25.722656 19.152344 25.769531 19.066406 25.773438 18.953125 C 25.769531 18.863281 25.742188 18.789062 25.6875 18.714844 C 25.585938 18.632812 25.511719 18.617188 25.382812 18.617188 C 25.351562 18.617188 25.351562 18.617188 25.324219 18.617188 C 25.285156 18.617188 25.285156 18.617188 25.246094 18.617188 C 25.167969 18.621094 25.085938 18.621094 25.003906 18.621094 Z M 25.003906 19.796875 C 25.003906 20.054688 25.003906 20.3125 25.003906 20.578125 C 25.390625 20.589844 25.390625 20.589844 25.746094 20.464844 C 25.847656 20.355469 25.847656 20.257812 25.847656 20.113281 C 25.835938 20 25.789062 19.933594 25.710938 19.855469 C 25.566406 19.78125 25.417969 19.792969 25.261719 19.796875 C 25.175781 19.796875 25.089844 19.796875 25.003906 19.796875 Z M 25.003906 19.796875 "/>
<path style=" stroke:none;fill-rule:nonzero;fill:rgb(12.54902%,35.686275%,35.686275%);fill-opacity:1;" d="M 22.515625 18.011719 C 22.515625 18.839844 22.515625 19.667969 22.515625 20.519531 C 22.570312 20.53125 22.628906 20.546875 22.6875 20.558594 C 22.714844 20.578125 22.714844 20.578125 22.742188 20.597656 C 22.75 20.632812 22.75 20.632812 22.75 20.679688 C 22.75 20.695312 22.75 20.710938 22.746094 20.726562 C 22.746094 20.746094 22.746094 20.761719 22.746094 20.777344 C 22.746094 20.804688 22.746094 20.804688 22.746094 20.832031 C 22.746094 20.871094 22.746094 20.914062 22.742188 20.957031 C 22.527344 21.039062 22.3125 21.105469 22.078125 21.070312 C 22.023438 21.039062 22.011719 21.015625 21.984375 20.957031 C 21.984375 20.945312 21.984375 20.933594 21.984375 20.917969 C 21.96875 20.925781 21.953125 20.933594 21.9375 20.941406 C 21.917969 20.953125 21.898438 20.964844 21.878906 20.972656 C 21.859375 20.984375 21.839844 20.992188 21.820312 21.003906 C 21.582031 21.109375 21.289062 21.105469 21.046875 21.019531 C 20.863281 20.9375 20.746094 20.824219 20.667969 20.636719 C 20.527344 20.246094 20.53125 19.730469 20.703125 19.355469 C 20.820312 19.140625 21 19.011719 21.230469 18.9375 C 21.441406 18.878906 21.671875 18.886719 21.886719 18.925781 C 21.894531 18.796875 21.902344 18.671875 21.90625 18.542969 C 21.851562 18.523438 21.792969 18.507812 21.734375 18.488281 C 21.667969 18.445312 21.667969 18.445312 21.621094 18.390625 C 21.621094 18.332031 21.621094 18.292969 21.632812 18.238281 C 21.636719 18.222656 21.636719 18.207031 21.640625 18.195312 C 21.648438 18.144531 21.65625 18.097656 21.679688 18.050781 C 21.945312 17.964844 22.246094 18 22.515625 18.011719 Z M 21.324219 19.449219 C 21.171875 19.648438 21.183594 19.980469 21.207031 20.21875 C 21.230469 20.367188 21.261719 20.488281 21.375 20.59375 C 21.464844 20.648438 21.566406 20.644531 21.667969 20.625 C 21.765625 20.597656 21.835938 20.570312 21.90625 20.5 C 21.921875 20.449219 21.921875 20.449219 21.917969 20.390625 C 21.917969 20.367188 21.917969 20.34375 21.917969 20.320312 C 21.917969 20.285156 21.917969 20.285156 21.917969 20.25 C 21.917969 20.210938 21.917969 20.210938 21.914062 20.171875 C 21.914062 20.109375 21.914062 20.042969 21.914062 19.976562 C 21.914062 19.910156 21.914062 19.84375 21.910156 19.773438 C 21.910156 19.644531 21.910156 19.511719 21.90625 19.378906 C 21.875 19.375 21.839844 19.367188 21.808594 19.363281 C 21.789062 19.359375 21.773438 19.355469 21.753906 19.351562 C 21.589844 19.324219 21.449219 19.328125 21.324219 19.449219 Z M 21.324219 19.449219 "/>
<path style=" stroke:none;fill-rule:nonzero;fill:rgb(12.54902%,35.686275%,35.686275%);fill-opacity:1;" d="M 28.414062 19.074219 C 28.628906 19.257812 28.703125 19.507812 28.726562 19.777344 C 28.75 20.136719 28.703125 20.5 28.464844 20.78125 C 28.261719 20.992188 28.015625 21.070312 27.730469 21.078125 C 27.453125 21.078125 27.191406 21.054688 26.972656 20.859375 C 26.738281 20.609375 26.6875 20.28125 26.691406 19.949219 C 26.703125 19.648438 26.773438 19.375 26.980469 19.152344 C 27.351562 18.828125 28.007812 18.789062 28.414062 19.074219 Z M 27.429688 19.453125 C 27.273438 19.65625 27.300781 19.992188 27.332031 20.234375 C 27.367188 20.394531 27.410156 20.5 27.550781 20.597656 C 27.636719 20.640625 27.71875 20.648438 27.816406 20.625 C 27.914062 20.59375 27.96875 20.550781 28.023438 20.464844 C 28.140625 20.222656 28.140625 19.890625 28.070312 19.636719 C 28.027344 19.527344 27.980469 19.4375 27.875 19.378906 C 27.71875 19.3125 27.554688 19.332031 27.429688 19.453125 Z M 27.429688 19.453125 "/>
<path style=" stroke:none;fill-rule:nonzero;fill:rgb(12.54902%,35.686275%,35.686275%);fill-opacity:1;" d="M 30.667969 19.105469 C 30.84375 19.265625 30.917969 19.515625 30.9375 19.746094 C 30.941406 19.8125 30.941406 19.875 30.941406 19.9375 C 30.941406 19.960938 30.941406 19.984375 30.941406 20.007812 C 30.9375 20.175781 30.917969 20.324219 30.855469 20.480469 C 30.847656 20.503906 30.839844 20.523438 30.832031 20.542969 C 30.71875 20.800781 30.527344 20.933594 30.273438 21.035156 C 29.980469 21.125 29.625 21.097656 29.347656 20.96875 C 29.144531 20.859375 29.035156 20.703125 28.96875 20.484375 C 28.863281 20.121094 28.875 19.667969 29.058594 19.328125 C 29.207031 19.105469 29.390625 18.980469 29.648438 18.917969 C 30 18.855469 30.378906 18.886719 30.667969 19.105469 Z M 29.664062 19.441406 C 29.503906 19.636719 29.515625 19.914062 29.535156 20.152344 C 29.550781 20.3125 29.59375 20.46875 29.714844 20.578125 C 29.808594 20.628906 29.894531 20.644531 30 20.632812 C 30.117188 20.597656 30.183594 20.542969 30.246094 20.445312 C 30.359375 20.203125 30.347656 19.898438 30.285156 19.644531 C 30.246094 19.535156 30.199219 19.441406 30.097656 19.378906 C 29.9375 19.3125 29.796875 19.332031 29.664062 19.441406 Z M 29.664062 19.441406 "/>
<path style=" stroke:none;fill-rule:nonzero;fill:rgb(12.54902%,35.686275%,35.686275%);fill-opacity:1;" d="M 19.574219 18.898438 C 19.601562 18.898438 19.601562 18.898438 19.625 18.898438 C 19.84375 18.902344 20.027344 18.953125 20.191406 19.101562 C 20.359375 19.292969 20.394531 19.527344 20.398438 19.773438 C 20.398438 19.796875 20.398438 19.796875 20.398438 19.820312 C 20.398438 19.921875 20.378906 19.984375 20.3125 20.0625 C 20.1875 20.15625 20.039062 20.144531 19.890625 20.140625 C 19.871094 20.140625 19.851562 20.140625 19.832031 20.140625 C 19.765625 20.140625 19.703125 20.140625 19.640625 20.140625 C 19.59375 20.140625 19.550781 20.140625 19.507812 20.140625 C 19.402344 20.140625 19.296875 20.140625 19.191406 20.140625 C 19.199219 20.171875 19.207031 20.207031 19.214844 20.238281 C 19.222656 20.257812 19.226562 20.277344 19.230469 20.296875 C 19.257812 20.382812 19.28125 20.453125 19.359375 20.507812 C 19.578125 20.621094 19.835938 20.589844 20.0625 20.519531 C 20.101562 20.503906 20.101562 20.503906 20.132812 20.488281 C 20.148438 20.480469 20.164062 20.472656 20.179688 20.464844 C 20.207031 20.472656 20.207031 20.472656 20.234375 20.480469 C 20.257812 20.53125 20.277344 20.578125 20.296875 20.628906 C 20.304688 20.652344 20.304688 20.652344 20.316406 20.671875 C 20.351562 20.773438 20.351562 20.773438 20.335938 20.832031 C 20.214844 20.980469 19.964844 21.050781 19.777344 21.070312 C 19.429688 21.089844 19.097656 21.078125 18.824219 20.832031 C 18.589844 20.582031 18.546875 20.238281 18.558594 19.910156 C 18.570312 19.621094 18.652344 19.335938 18.871094 19.132812 C 19.085938 18.976562 19.308594 18.898438 19.574219 18.898438 Z M 19.292969 19.449219 C 19.226562 19.546875 19.207031 19.644531 19.191406 19.761719 C 19.40625 19.761719 19.621094 19.761719 19.835938 19.742188 C 19.847656 19.597656 19.847656 19.597656 19.804688 19.464844 C 19.726562 19.382812 19.671875 19.347656 19.558594 19.335938 C 19.453125 19.339844 19.367188 19.371094 19.292969 19.449219 Z M 19.292969 19.449219 "/>
<path style=" stroke:none;fill-rule:nonzero;fill:rgb(12.54902%,35.686275%,35.686275%);fill-opacity:1;" d="M 31.921875 18.011719 C 31.925781 18.851562 31.933594 19.691406 31.9375 20.558594 C 32.023438 20.605469 32.023438 20.605469 32.109375 20.652344 C 32.148438 20.691406 32.148438 20.691406 32.148438 20.746094 C 32.144531 20.765625 32.144531 20.789062 32.140625 20.8125 C 32.140625 20.832031 32.136719 20.855469 32.136719 20.875 C 32.128906 20.929688 32.121094 20.980469 32.109375 21.03125 C 31.785156 21.03125 31.457031 21.03125 31.121094 21.03125 C 31.085938 20.785156 31.085938 20.785156 31.085938 20.691406 C 31.148438 20.625 31.210938 20.597656 31.292969 20.558594 C 31.300781 19.886719 31.304688 19.214844 31.3125 18.523438 C 31.28125 18.519531 31.25 18.511719 31.21875 18.507812 C 31.160156 18.484375 31.121094 18.460938 31.085938 18.410156 C 31.078125 18.332031 31.089844 18.261719 31.101562 18.183594 C 31.105469 18.15625 31.109375 18.128906 31.113281 18.101562 C 31.117188 18.085938 31.121094 18.066406 31.121094 18.050781 C 31.394531 17.988281 31.632812 17.996094 31.921875 18.011719 Z M 31.921875 18.011719 "/>
<path style=" stroke:none;fill-rule:nonzero;fill:rgb(12.54902%,35.686275%,35.686275%);fill-opacity:1;" d="M 32.339844 18.941406 C 32.652344 18.941406 32.964844 18.941406 33.289062 18.941406 C 33.308594 19.113281 33.308594 19.113281 33.324219 19.285156 C 33.238281 19.347656 33.164062 19.398438 33.058594 19.433594 C 32.9375 19.476562 32.875 19.566406 32.792969 19.664062 C 32.769531 19.691406 32.769531 19.691406 32.746094 19.722656 C 32.648438 19.820312 32.648438 19.820312 32.621094 19.949219 C 32.640625 19.984375 32.640625 19.984375 32.667969 20.015625 C 32.675781 20.027344 32.683594 20.039062 32.695312 20.050781 C 32.703125 20.066406 32.714844 20.078125 32.726562 20.089844 C 32.746094 20.117188 32.765625 20.144531 32.789062 20.171875 C 32.800781 20.1875 32.808594 20.199219 32.820312 20.214844 C 32.847656 20.25 32.875 20.289062 32.898438 20.324219 C 33.007812 20.484375 33.105469 20.539062 33.289062 20.597656 C 33.351562 20.621094 33.359375 20.628906 33.402344 20.691406 C 33.40625 20.808594 33.402344 20.921875 33.363281 21.03125 C 32.769531 21.105469 32.769531 21.105469 32.601562 20.992188 C 32.503906 20.886719 32.441406 20.761719 32.382812 20.632812 C 32.347656 20.558594 32.304688 20.5 32.257812 20.4375 C 32.226562 20.394531 32.195312 20.351562 32.167969 20.3125 C 32.152344 20.289062 32.152344 20.289062 32.136719 20.269531 C 32.101562 20.222656 32.070312 20.175781 32.039062 20.128906 C 32.023438 20.109375 32.023438 20.109375 32.007812 20.085938 C 31.9375 19.984375 31.9375 19.984375 31.945312 19.921875 C 31.988281 19.855469 32.035156 19.796875 32.082031 19.738281 C 32.179688 19.621094 32.269531 19.503906 32.355469 19.378906 C 32.332031 19.328125 32.332031 19.328125 32.300781 19.285156 C 32.300781 19.242188 32.304688 19.199219 32.308594 19.15625 C 32.308594 19.132812 32.3125 19.109375 32.3125 19.082031 C 32.320312 19.019531 32.320312 19.019531 32.339844 18.941406 Z M 32.339844 18.941406 "/>
<path style=" stroke:none;fill-rule:nonzero;fill:rgb(12.54902%,35.686275%,35.686275%);fill-opacity:1;" d="M 23.46875 18.882812 C 23.496094 18.882812 23.523438 18.882812 23.550781 18.882812 C 23.617188 18.882812 23.683594 18.886719 23.75 18.886719 C 23.75 18.90625 23.75 18.925781 23.75 18.949219 C 23.746094 19.144531 23.746094 19.339844 23.746094 19.535156 C 23.746094 19.632812 23.746094 19.734375 23.746094 19.835938 C 23.746094 19.933594 23.746094 20.027344 23.746094 20.125 C 23.746094 20.164062 23.746094 20.199219 23.746094 20.234375 C 23.730469 20.433594 23.730469 20.433594 23.8125 20.601562 C 23.863281 20.632812 23.863281 20.632812 23.917969 20.652344 C 23.9375 20.660156 23.9375 20.660156 23.960938 20.671875 C 23.976562 20.765625 23.976562 20.765625 23.941406 21.03125 C 23.613281 21.03125 23.289062 21.03125 22.953125 21.03125 C 22.914062 20.804688 22.914062 20.804688 22.914062 20.691406 C 22.976562 20.628906 23.046875 20.597656 23.121094 20.558594 C 23.128906 20.410156 23.128906 20.265625 23.132812 20.117188 C 23.132812 20.050781 23.136719 19.980469 23.136719 19.914062 C 23.140625 19.847656 23.140625 19.78125 23.140625 19.714844 C 23.140625 19.679688 23.144531 19.640625 23.144531 19.605469 C 23.144531 19.539062 23.144531 19.484375 23.121094 19.417969 C 23.066406 19.363281 23.003906 19.332031 22.933594 19.304688 C 22.925781 19.296875 22.921875 19.292969 22.914062 19.285156 C 22.914062 19.242188 22.917969 19.199219 22.921875 19.15625 C 22.921875 19.132812 22.925781 19.109375 22.925781 19.085938 C 22.933594 19.03125 22.941406 18.976562 22.953125 18.925781 C 23.125 18.882812 23.292969 18.882812 23.46875 18.882812 Z M 23.46875 18.882812 "/>
<path style=" stroke:none;fill-rule:nonzero;fill:rgb(80.000001%,90.980393%,78.823531%);fill-opacity:1;" d="M 14.839844 22.078125 C 14.914062 22.078125 14.988281 22.078125 15.066406 22.078125 C 15.191406 22.390625 15.316406 22.703125 15.445312 23.027344 C 15.488281 22.984375 15.5 22.957031 15.523438 22.902344 C 15.535156 22.875 15.535156 22.875 15.542969 22.847656 C 15.550781 22.828125 15.558594 22.808594 15.566406 22.785156 C 15.574219 22.765625 15.582031 22.746094 15.59375 22.726562 C 15.617188 22.660156 15.640625 22.597656 15.667969 22.53125 C 15.683594 22.488281 15.703125 22.445312 15.71875 22.398438 C 15.761719 22.292969 15.804688 22.183594 15.847656 22.078125 C 15.925781 22.078125 16.007812 22.078125 16.09375 22.078125 C 16.09375 22.492188 16.09375 22.90625 16.09375 23.332031 C 16.03125 23.332031 15.96875 23.332031 15.902344 23.332031 C 15.902344 23.039062 15.902344 22.742188 15.902344 22.4375 C 15.785156 22.734375 15.664062 23.027344 15.542969 23.332031 C 15.484375 23.332031 15.429688 23.332031 15.371094 23.332031 C 15.257812 23.050781 15.144531 22.769531 15.027344 22.476562 C 15.023438 22.757812 15.015625 23.042969 15.011719 23.332031 C 14.953125 23.332031 14.898438 23.332031 14.839844 23.332031 C 14.839844 22.917969 14.839844 22.503906 14.839844 22.078125 Z M 14.992188 22.382812 C 15.011719 22.421875 15.011719 22.421875 15.011719 22.421875 Z M 14.992188 22.382812 "/>
<path style=" stroke:none;fill-rule:nonzero;fill:rgb(80.000001%,90.980393%,78.823531%);fill-opacity:1;" d="M 29.453125 22.398438 C 29.503906 22.425781 29.542969 22.457031 29.582031 22.496094 C 29.597656 22.484375 29.609375 22.472656 29.625 22.460938 C 29.730469 22.378906 29.832031 22.367188 29.964844 22.382812 C 30.050781 22.40625 30.101562 22.4375 30.152344 22.515625 C 30.1875 22.617188 30.195312 22.710938 30.191406 22.820312 C 30.191406 22.835938 30.191406 22.851562 30.191406 22.867188 C 30.191406 22.914062 30.191406 22.957031 30.191406 23.003906 C 30.191406 23.035156 30.191406 23.070312 30.191406 23.101562 C 30.191406 23.175781 30.191406 23.253906 30.191406 23.332031 C 30.128906 23.332031 30.066406 23.332031 30 23.332031 C 30 23.300781 30 23.300781 30 23.269531 C 30 23.191406 29.996094 23.113281 29.996094 23.035156 C 29.996094 23 29.992188 22.96875 29.992188 22.933594 C 29.992188 22.886719 29.992188 22.835938 29.988281 22.789062 C 29.988281 22.773438 29.988281 22.757812 29.988281 22.742188 C 29.988281 22.671875 29.984375 22.632812 29.945312 22.570312 C 29.875 22.550781 29.824219 22.546875 29.753906 22.554688 C 29.703125 22.585938 29.667969 22.609375 29.640625 22.667969 C 29.636719 22.71875 29.636719 22.765625 29.632812 22.816406 C 29.632812 22.832031 29.632812 22.84375 29.632812 22.859375 C 29.632812 22.90625 29.628906 22.953125 29.628906 23 C 29.628906 23.035156 29.628906 23.066406 29.625 23.097656 C 29.625 23.175781 29.621094 23.253906 29.621094 23.332031 C 29.558594 23.332031 29.496094 23.332031 29.429688 23.332031 C 29.429688 23.3125 29.429688 23.289062 29.429688 23.269531 C 29.429688 23.191406 29.425781 23.113281 29.425781 23.035156 C 29.421875 23 29.421875 22.96875 29.421875 22.933594 C 29.421875 22.886719 29.417969 22.835938 29.417969 22.789062 C 29.417969 22.773438 29.417969 22.757812 29.417969 22.742188 C 29.414062 22.679688 29.414062 22.628906 29.394531 22.570312 C 29.328125 22.542969 29.253906 22.546875 29.183594 22.554688 C 29.113281 22.585938 29.113281 22.585938 29.070312 22.648438 C 29.066406 22.699219 29.066406 22.75 29.0625 22.800781 C 29.0625 22.816406 29.0625 22.832031 29.0625 22.847656 C 29.0625 22.894531 29.058594 22.945312 29.058594 22.992188 C 29.058594 23.023438 29.058594 23.058594 29.058594 23.089844 C 29.054688 23.171875 29.054688 23.25 29.050781 23.332031 C 28.996094 23.332031 28.9375 23.332031 28.878906 23.332031 C 28.878906 23.023438 28.878906 22.71875 28.878906 22.402344 C 28.929688 22.402344 28.980469 22.402344 29.03125 22.402344 C 29.039062 22.417969 29.042969 22.4375 29.050781 22.457031 C 29.070312 22.445312 29.09375 22.433594 29.113281 22.421875 C 29.222656 22.367188 29.339844 22.355469 29.453125 22.398438 Z M 29.453125 22.398438 "/>
<path style=" stroke:none;fill-rule:nonzero;fill:rgb(80.000001%,90.980393%,78.823531%);fill-opacity:1;" d="M 25.046875 22.402344 C 25.164062 22.484375 25.21875 22.566406 25.25 22.703125 C 25.269531 22.878906 25.28125 23.070312 25.175781 23.21875 C 25.105469 23.296875 25.050781 23.347656 24.945312 23.355469 C 24.925781 23.355469 24.902344 23.355469 24.882812 23.355469 C 24.859375 23.355469 24.839844 23.359375 24.816406 23.359375 C 24.757812 23.351562 24.757812 23.351562 24.660156 23.292969 C 24.65625 23.425781 24.648438 23.558594 24.644531 23.691406 C 24.582031 23.691406 24.519531 23.691406 24.453125 23.691406 C 24.453125 23.265625 24.453125 22.839844 24.453125 22.402344 C 24.507812 22.402344 24.566406 22.402344 24.625 22.402344 C 24.628906 22.417969 24.636719 22.4375 24.644531 22.457031 C 24.664062 22.445312 24.683594 22.433594 24.707031 22.421875 C 24.820312 22.363281 24.929688 22.363281 25.046875 22.402344 Z M 24.644531 22.628906 C 24.636719 22.710938 24.636719 22.792969 24.636719 22.871094 C 24.636719 22.894531 24.632812 22.917969 24.632812 22.941406 C 24.632812 22.964844 24.632812 22.984375 24.632812 23.007812 C 24.632812 23.027344 24.632812 23.046875 24.632812 23.070312 C 24.636719 23.125 24.636719 23.125 24.6875 23.167969 C 24.75 23.207031 24.796875 23.214844 24.871094 23.21875 C 24.96875 23.183594 25.011719 23.136719 25.0625 23.046875 C 25.097656 22.9375 25.101562 22.796875 25.058594 22.6875 C 25.015625 22.613281 24.980469 22.582031 24.910156 22.535156 C 24.796875 22.515625 24.722656 22.546875 24.644531 22.628906 Z M 24.644531 22.628906 "/>
<path style=" stroke:none;fill-rule:nonzero;fill:rgb(80.000001%,90.980393%,78.823531%);fill-opacity:1;" d="M 22.570312 22.074219 C 22.609375 22.078125 22.648438 22.078125 22.6875 22.078125 C 22.742188 22.199219 22.789062 22.320312 22.835938 22.441406 C 22.84375 22.460938 22.851562 22.476562 22.859375 22.496094 C 22.871094 22.53125 22.886719 22.570312 22.902344 22.609375 C 22.921875 22.664062 22.945312 22.722656 22.96875 22.777344 C 22.980469 22.8125 22.996094 22.851562 23.007812 22.886719 C 23.015625 22.90625 23.023438 22.921875 23.027344 22.9375 C 23.0625 23.023438 23.09375 23.113281 23.128906 23.199219 C 23.132812 23.214844 23.140625 23.234375 23.148438 23.25 C 23.160156 23.292969 23.160156 23.292969 23.160156 23.332031 C 23.097656 23.332031 23.035156 23.332031 22.972656 23.332031 C 22.933594 23.230469 22.894531 23.132812 22.855469 23.027344 C 22.695312 23.027344 22.53125 23.027344 22.363281 23.027344 C 22.324219 23.128906 22.289062 23.230469 22.25 23.332031 C 22.1875 23.332031 22.125 23.332031 22.058594 23.332031 C 22.101562 23.183594 22.152344 23.039062 22.207031 22.894531 C 22.21875 22.871094 22.226562 22.851562 22.234375 22.828125 C 22.253906 22.777344 22.269531 22.730469 22.289062 22.683594 C 22.3125 22.621094 22.335938 22.558594 22.359375 22.496094 C 22.382812 22.4375 22.40625 22.378906 22.429688 22.320312 C 22.4375 22.296875 22.445312 22.277344 22.453125 22.253906 C 22.460938 22.234375 22.46875 22.214844 22.476562 22.191406 C 22.484375 22.175781 22.492188 22.15625 22.496094 22.136719 C 22.523438 22.078125 22.523438 22.078125 22.570312 22.074219 Z M 22.589844 22.34375 C 22.5625 22.421875 22.535156 22.5 22.503906 22.578125 C 22.492188 22.613281 22.492188 22.613281 22.480469 22.648438 C 22.472656 22.667969 22.464844 22.6875 22.457031 22.710938 C 22.449219 22.730469 22.441406 22.75 22.4375 22.769531 C 22.417969 22.816406 22.417969 22.816406 22.421875 22.855469 C 22.546875 22.855469 22.671875 22.855469 22.800781 22.855469 C 22.75 22.683594 22.691406 22.515625 22.628906 22.34375 C 22.617188 22.34375 22.605469 22.34375 22.589844 22.34375 Z M 22.589844 22.34375 "/>
<path style=" stroke:none;fill-rule:nonzero;fill:rgb(80.000001%,90.980393%,78.823531%);fill-opacity:1;" d="M 18.03125 22.019531 C 18.085938 22.019531 18.144531 22.019531 18.203125 22.019531 C 18.203125 22.453125 18.203125 22.886719 18.203125 23.332031 C 18.152344 23.332031 18.101562 23.332031 18.050781 23.332031 C 18.03125 23.3125 18.03125 23.3125 18.011719 23.292969 C 17.996094 23.304688 17.984375 23.3125 17.96875 23.324219 C 17.867188 23.375 17.738281 23.371094 17.628906 23.339844 C 17.523438 23.285156 17.464844 23.191406 17.429688 23.082031 C 17.382812 22.902344 17.386719 22.710938 17.476562 22.546875 C 17.546875 22.464844 17.617188 22.390625 17.730469 22.378906 C 17.746094 22.378906 17.761719 22.375 17.777344 22.375 C 17.792969 22.375 17.808594 22.375 17.824219 22.375 C 17.878906 22.382812 17.878906 22.382812 18.03125 22.457031 C 18.03125 22.3125 18.03125 22.167969 18.03125 22.019531 Z M 17.671875 22.589844 C 17.59375 22.675781 17.589844 22.75 17.589844 22.863281 C 17.589844 22.886719 17.589844 22.914062 17.585938 22.9375 C 17.597656 23.035156 17.625 23.097656 17.691406 23.167969 C 17.761719 23.207031 17.820312 23.214844 17.898438 23.199219 C 17.980469 23.15625 17.980469 23.15625 18.03125 23.085938 C 18.035156 23.011719 18.039062 22.941406 18.039062 22.871094 C 18.039062 22.851562 18.039062 22.832031 18.039062 22.808594 C 18.042969 22.691406 18.042969 22.691406 17.988281 22.585938 C 17.882812 22.519531 17.769531 22.507812 17.671875 22.589844 Z M 17.671875 22.589844 "/>
<path style=" stroke:none;fill-rule:nonzero;fill:rgb(80.000001%,90.980393%,78.823531%);fill-opacity:1;" d="M 23.984375 22.414062 C 24.097656 22.480469 24.144531 22.566406 24.175781 22.6875 C 24.210938 22.867188 24.207031 23.066406 24.101562 23.21875 C 24.054688 23.28125 24.011719 23.324219 23.941406 23.351562 C 23.882812 23.355469 23.882812 23.355469 23.820312 23.355469 C 23.796875 23.355469 23.777344 23.359375 23.753906 23.359375 C 23.691406 23.351562 23.691406 23.351562 23.578125 23.292969 C 23.574219 23.425781 23.566406 23.558594 23.558594 23.691406 C 23.503906 23.691406 23.445312 23.691406 23.390625 23.691406 C 23.390625 23.265625 23.390625 22.839844 23.390625 22.402344 C 23.4375 22.402344 23.488281 22.402344 23.539062 22.402344 C 23.554688 22.417969 23.566406 22.4375 23.578125 22.457031 C 23.589844 22.449219 23.601562 22.441406 23.613281 22.429688 C 23.71875 22.355469 23.867188 22.359375 23.984375 22.414062 Z M 23.597656 22.589844 C 23.539062 22.679688 23.550781 22.769531 23.550781 22.875 C 23.550781 22.894531 23.550781 22.914062 23.546875 22.9375 C 23.542969 23.042969 23.542969 23.042969 23.585938 23.140625 C 23.648438 23.191406 23.707031 23.21875 23.789062 23.21875 C 23.875 23.195312 23.910156 23.171875 23.964844 23.101562 C 24.035156 22.960938 24.027344 22.8125 23.976562 22.667969 C 23.9375 22.601562 23.898438 22.558594 23.824219 22.535156 C 23.734375 22.523438 23.675781 22.542969 23.597656 22.589844 Z M 23.597656 22.589844 "/>
<path style=" stroke:none;fill-rule:nonzero;fill:rgb(80.000001%,90.980393%,78.823531%);fill-opacity:1;" d="M 20.660156 22.433594 C 20.742188 22.496094 20.769531 22.570312 20.785156 22.667969 C 20.789062 22.71875 20.789062 22.769531 20.792969 22.820312 C 20.792969 22.835938 20.792969 22.851562 20.792969 22.867188 C 20.792969 22.914062 20.796875 22.957031 20.796875 23.003906 C 20.796875 23.035156 20.796875 23.070312 20.800781 23.101562 C 20.800781 23.175781 20.804688 23.253906 20.804688 23.332031 C 20.742188 23.332031 20.679688 23.332031 20.613281 23.332031 C 20.609375 23.3125 20.601562 23.292969 20.597656 23.273438 C 20.578125 23.289062 20.5625 23.300781 20.542969 23.3125 C 20.445312 23.367188 20.34375 23.363281 20.234375 23.351562 C 20.144531 23.320312 20.097656 23.277344 20.046875 23.199219 C 20.011719 23.105469 20.015625 23.023438 20.054688 22.929688 C 20.105469 22.832031 20.1875 22.804688 20.289062 22.769531 C 20.347656 22.757812 20.40625 22.761719 20.46875 22.761719 C 20.503906 22.761719 20.503906 22.761719 20.539062 22.761719 C 20.558594 22.761719 20.578125 22.761719 20.597656 22.761719 C 20.589844 22.734375 20.585938 22.707031 20.582031 22.679688 C 20.578125 22.664062 20.574219 22.648438 20.570312 22.632812 C 20.558594 22.585938 20.558594 22.585938 20.5 22.554688 C 20.421875 22.542969 20.351562 22.542969 20.28125 22.578125 C 20.25 22.609375 20.25 22.609375 20.234375 22.667969 C 20.171875 22.667969 20.109375 22.667969 20.046875 22.667969 C 20.050781 22.59375 20.058594 22.558594 20.105469 22.5 C 20.265625 22.371094 20.472656 22.324219 20.660156 22.433594 Z M 20.234375 22.953125 C 20.199219 23.003906 20.199219 23.003906 20.195312 23.066406 C 20.226562 23.132812 20.25 23.15625 20.3125 23.199219 C 20.425781 23.210938 20.484375 23.1875 20.578125 23.121094 C 20.601562 23.074219 20.597656 23.042969 20.597656 22.988281 C 20.597656 22.96875 20.597656 22.953125 20.597656 22.933594 C 20.597656 22.921875 20.597656 22.910156 20.597656 22.894531 C 20.40625 22.882812 20.40625 22.882812 20.234375 22.953125 Z M 20.234375 22.953125 "/>
<path style=" stroke:none;fill-rule:nonzero;fill:rgb(80.000001%,90.980393%,78.823531%);fill-opacity:1;" d="M 17.023438 22.4375 C 17.132812 22.53125 17.179688 22.640625 17.195312 22.78125 C 17.195312 22.832031 17.195312 22.882812 17.195312 22.933594 C 16.988281 22.933594 16.78125 22.933594 16.566406 22.933594 C 16.617188 23.082031 16.617188 23.082031 16.71875 23.179688 C 16.828125 23.214844 16.90625 23.191406 17.003906 23.140625 C 17.050781 23.113281 17.050781 23.113281 17.082031 23.085938 C 17.128906 23.121094 17.128906 23.121094 17.175781 23.160156 C 17.140625 23.246094 17.082031 23.292969 17 23.332031 C 16.875 23.375 16.714844 23.375 16.59375 23.320312 C 16.496094 23.257812 16.433594 23.175781 16.398438 23.066406 C 16.363281 22.875 16.371094 22.691406 16.484375 22.53125 C 16.625 22.363281 16.835938 22.332031 17.023438 22.4375 Z M 16.625 22.609375 C 16.605469 22.667969 16.585938 22.722656 16.566406 22.78125 C 16.710938 22.78125 16.855469 22.78125 17.003906 22.78125 C 16.988281 22.644531 16.988281 22.644531 16.910156 22.554688 C 16.804688 22.5 16.707031 22.535156 16.625 22.609375 Z M 16.625 22.609375 "/>
<path style=" stroke:none;fill-rule:nonzero;fill:rgb(80.000001%,90.980393%,78.823531%);fill-opacity:1;" d="M 31.042969 22.402344 C 31.164062 22.476562 31.210938 22.550781 31.253906 22.6875 C 31.253906 22.765625 31.253906 22.847656 31.253906 22.933594 C 31.054688 22.933594 30.855469 22.933594 30.648438 22.933594 C 30.6875 23.09375 30.6875 23.09375 30.800781 23.179688 C 30.90625 23.210938 30.96875 23.195312 31.066406 23.140625 C 31.101562 23.113281 31.101562 23.113281 31.121094 23.085938 C 31.191406 23.109375 31.210938 23.117188 31.253906 23.179688 C 31.191406 23.265625 31.136719 23.328125 31.027344 23.351562 C 30.875 23.367188 30.734375 23.371094 30.609375 23.273438 C 30.496094 23.167969 30.453125 23.042969 30.449219 22.886719 C 30.457031 22.71875 30.496094 22.589844 30.609375 22.46875 C 30.738281 22.359375 30.886719 22.359375 31.042969 22.402344 Z M 30.683594 22.628906 C 30.65625 22.6875 30.648438 22.714844 30.648438 22.78125 C 30.792969 22.78125 30.933594 22.78125 31.085938 22.78125 C 31.066406 22.644531 31.066406 22.644531 30.988281 22.554688 C 30.863281 22.492188 30.769531 22.535156 30.683594 22.628906 Z M 30.683594 22.628906 "/>
<path style=" stroke:none;fill-rule:nonzero;fill:rgb(80.392158%,90.980393%,79.215688%);fill-opacity:1;" d="M 26.132812 22.421875 C 26.242188 22.484375 26.292969 22.554688 26.339844 22.667969 C 26.371094 22.851562 26.378906 23.039062 26.277344 23.199219 C 26.199219 23.289062 26.113281 23.34375 25.992188 23.355469 C 25.859375 23.359375 25.757812 23.355469 25.648438 23.273438 C 25.527344 23.152344 25.496094 23.035156 25.488281 22.867188 C 25.492188 22.714844 25.523438 22.617188 25.617188 22.5 C 25.777344 22.371094 25.941406 22.335938 26.132812 22.421875 Z M 25.765625 22.589844 C 25.675781 22.703125 25.65625 22.808594 25.667969 22.953125 C 25.695312 23.054688 25.734375 23.132812 25.820312 23.199219 C 25.898438 23.222656 25.9375 23.222656 26.015625 23.195312 C 26.117188 23.128906 26.15625 23.054688 26.183594 22.933594 C 26.191406 22.828125 26.175781 22.742188 26.125 22.648438 C 26.0625 22.574219 26.027344 22.535156 25.929688 22.527344 C 25.851562 22.535156 25.824219 22.542969 25.765625 22.589844 Z M 25.765625 22.589844 "/>
<path style=" stroke:none;fill-rule:nonzero;fill:rgb(12.54902%,35.686275%,35.686275%);fill-opacity:1;" d="M 23.691406 18.070312 C 23.777344 18.15625 23.792969 18.210938 23.792969 18.332031 C 23.792969 18.355469 23.792969 18.378906 23.792969 18.402344 C 23.785156 18.496094 23.753906 18.542969 23.683594 18.605469 C 23.601562 18.664062 23.535156 18.660156 23.441406 18.664062 C 23.414062 18.664062 23.390625 18.664062 23.367188 18.664062 C 23.265625 18.65625 23.203125 18.628906 23.136719 18.550781 C 23.066406 18.449219 23.078125 18.34375 23.085938 18.222656 C 23.117188 18.121094 23.164062 18.082031 23.257812 18.03125 C 23.402344 17.984375 23.558594 18 23.691406 18.070312 Z M 23.691406 18.070312 "/>
<path style=" stroke:none;fill-rule:nonzero;fill:rgb(78.431374%,89.803922%,77.64706%);fill-opacity:1;" d="M 11.703125 18.488281 C 11.960938 18.488281 12.21875 18.488281 12.484375 18.488281 C 12.484375 18.84375 12.484375 18.84375 12.363281 18.984375 C 12.285156 19.0625 12.203125 19.097656 12.09375 19.105469 C 11.996094 19.101562 11.929688 19.058594 11.855469 19 C 11.839844 18.988281 11.828125 18.980469 11.8125 18.96875 C 11.710938 18.828125 11.714844 18.652344 11.703125 18.488281 Z M 11.703125 18.488281 "/>
<path style=" stroke:none;fill-rule:nonzero;fill:rgb(80.000001%,90.980393%,78.431374%);fill-opacity:1;" d="M 32.117188 22.40625 C 32.191406 22.457031 32.234375 22.507812 32.261719 22.589844 C 32.261719 22.648438 32.265625 22.703125 32.265625 22.757812 C 32.265625 22.773438 32.265625 22.792969 32.265625 22.808594 C 32.261719 22.859375 32.261719 22.914062 32.261719 22.964844 C 32.261719 23 32.261719 23.035156 32.261719 23.070312 C 32.261719 23.160156 32.261719 23.246094 32.261719 23.332031 C 32.207031 23.332031 32.148438 23.332031 32.089844 23.332031 C 32.089844 23.3125 32.089844 23.292969 32.089844 23.269531 C 32.085938 23.195312 32.085938 23.121094 32.082031 23.042969 C 32.082031 23.011719 32.082031 22.980469 32.082031 22.945312 C 32.082031 22.898438 32.078125 22.851562 32.078125 22.804688 C 32.078125 22.789062 32.078125 22.777344 32.078125 22.761719 C 32.074219 22.695312 32.070312 22.636719 32.054688 22.570312 C 31.894531 22.546875 31.894531 22.546875 31.75 22.609375 C 31.703125 22.679688 31.703125 22.738281 31.703125 22.816406 C 31.703125 22.832031 31.703125 22.847656 31.703125 22.863281 C 31.699219 22.910156 31.699219 22.957031 31.699219 23.003906 C 31.699219 23.035156 31.699219 23.066406 31.695312 23.097656 C 31.695312 23.175781 31.695312 23.253906 31.691406 23.332031 C 31.636719 23.332031 31.578125 23.332031 31.519531 23.332031 C 31.519531 23.023438 31.519531 22.71875 31.519531 22.402344 C 31.578125 22.402344 31.632812 22.402344 31.691406 22.402344 C 31.699219 22.425781 31.703125 22.449219 31.710938 22.476562 C 31.726562 22.464844 31.738281 22.453125 31.753906 22.441406 C 31.859375 22.359375 31.996094 22.363281 32.117188 22.40625 Z M 32.117188 22.40625 "/>
<path style=" stroke:none;fill-rule:nonzero;fill:rgb(80.000001%,90.980393%,78.823531%);fill-opacity:1;" d="M 27.75 22.40625 C 27.835938 22.464844 27.863281 22.503906 27.890625 22.609375 C 27.898438 22.667969 27.894531 22.722656 27.894531 22.777344 C 27.894531 22.796875 27.894531 22.8125 27.894531 22.828125 C 27.894531 22.878906 27.894531 22.929688 27.894531 22.976562 C 27.894531 23.011719 27.894531 23.046875 27.894531 23.082031 C 27.894531 23.164062 27.894531 23.25 27.890625 23.332031 C 27.835938 23.332031 27.777344 23.332031 27.722656 23.332031 C 27.71875 23.3125 27.71875 23.292969 27.71875 23.273438 C 27.71875 23.203125 27.714844 23.132812 27.714844 23.0625 C 27.714844 23.03125 27.714844 23 27.714844 22.96875 C 27.710938 22.925781 27.710938 22.878906 27.710938 22.835938 C 27.710938 22.824219 27.710938 22.808594 27.710938 22.796875 C 27.707031 22.71875 27.699219 22.65625 27.664062 22.589844 C 27.59375 22.542969 27.558594 22.542969 27.472656 22.554688 C 27.394531 22.597656 27.394531 22.597656 27.339844 22.667969 C 27.339844 22.71875 27.335938 22.765625 27.335938 22.816406 C 27.335938 22.832031 27.335938 22.84375 27.332031 22.859375 C 27.332031 22.90625 27.332031 22.953125 27.332031 23 C 27.328125 23.035156 27.328125 23.066406 27.328125 23.097656 C 27.324219 23.175781 27.324219 23.253906 27.320312 23.332031 C 27.265625 23.332031 27.210938 23.332031 27.152344 23.332031 C 27.152344 23.023438 27.152344 22.71875 27.152344 22.402344 C 27.207031 22.402344 27.265625 22.402344 27.320312 22.402344 C 27.328125 22.417969 27.335938 22.4375 27.339844 22.457031 C 27.363281 22.445312 27.382812 22.433594 27.40625 22.421875 C 27.519531 22.363281 27.628906 22.363281 27.75 22.40625 Z M 27.75 22.40625 "/>
<path style=" stroke:none;fill-rule:nonzero;fill:rgb(80.000001%,90.980393%,78.823531%);fill-opacity:1;" d="M 19.613281 22.414062 C 19.6875 22.453125 19.734375 22.5 19.777344 22.570312 C 19.792969 22.628906 19.796875 22.683594 19.796875 22.742188 C 19.746094 22.742188 19.699219 22.742188 19.644531 22.742188 C 19.640625 22.734375 19.636719 22.722656 19.632812 22.710938 C 19.625 22.699219 19.621094 22.683594 19.613281 22.667969 C 19.601562 22.648438 19.601562 22.648438 19.59375 22.628906 C 19.566406 22.582031 19.542969 22.570312 19.492188 22.554688 C 19.386719 22.542969 19.386719 22.542969 19.289062 22.585938 C 19.207031 22.671875 19.203125 22.761719 19.203125 22.875 C 19.203125 22.886719 19.203125 22.902344 19.203125 22.914062 C 19.203125 23.003906 19.21875 23.066406 19.265625 23.140625 C 19.335938 23.183594 19.378906 23.199219 19.457031 23.199219 C 19.523438 23.175781 19.558594 23.152344 19.609375 23.105469 C 19.613281 23.078125 19.621094 23.054688 19.628906 23.027344 C 19.683594 23.027344 19.738281 23.027344 19.796875 23.027344 C 19.792969 23.132812 19.769531 23.183594 19.699219 23.265625 C 19.589844 23.355469 19.488281 23.363281 19.351562 23.359375 C 19.230469 23.34375 19.15625 23.289062 19.078125 23.195312 C 18.980469 23.042969 18.988281 22.855469 19.019531 22.6875 C 19.058594 22.558594 19.113281 22.480469 19.230469 22.417969 C 19.351562 22.363281 19.492188 22.355469 19.613281 22.414062 Z M 19.613281 22.414062 "/>
<path style=" stroke:none;fill-rule:nonzero;fill:rgb(80.000001%,90.980393%,78.823531%);fill-opacity:1;" d="M 28.273438 22.171875 C 28.328125 22.171875 28.386719 22.171875 28.441406 22.171875 C 28.441406 22.25 28.441406 22.324219 28.441406 22.402344 C 28.5 22.402344 28.554688 22.402344 28.613281 22.402344 C 28.613281 22.445312 28.613281 22.488281 28.613281 22.535156 C 28.558594 22.535156 28.5 22.535156 28.441406 22.535156 C 28.445312 22.621094 28.449219 22.710938 28.449219 22.800781 C 28.449219 22.832031 28.453125 22.863281 28.453125 22.890625 C 28.453125 22.933594 28.453125 22.980469 28.457031 23.023438 C 28.457031 23.035156 28.457031 23.050781 28.457031 23.0625 C 28.453125 23.128906 28.453125 23.128906 28.480469 23.179688 C 28.523438 23.1875 28.570312 23.191406 28.613281 23.199219 C 28.613281 23.25 28.613281 23.300781 28.613281 23.351562 C 28.40625 23.363281 28.40625 23.363281 28.324219 23.316406 C 28.261719 23.242188 28.269531 23.175781 28.269531 23.078125 C 28.269531 23.0625 28.269531 23.046875 28.269531 23.03125 C 28.269531 22.984375 28.269531 22.933594 28.269531 22.882812 C 28.269531 22.847656 28.269531 22.816406 28.269531 22.78125 C 28.269531 22.699219 28.273438 22.617188 28.273438 22.535156 C 28.214844 22.535156 28.160156 22.535156 28.101562 22.535156 C 28.101562 22.488281 28.101562 22.445312 28.101562 22.402344 C 28.15625 22.402344 28.214844 22.402344 28.273438 22.402344 C 28.273438 22.324219 28.273438 22.25 28.273438 22.171875 Z M 28.273438 22.171875 "/>
<path style=" stroke:none;fill-rule:nonzero;fill:rgb(79.607844%,90.980393%,78.431374%);fill-opacity:1;" d="M 32.640625 22.171875 C 32.699219 22.171875 32.753906 22.171875 32.8125 22.171875 C 32.8125 22.25 32.8125 22.324219 32.8125 22.402344 C 32.871094 22.402344 32.925781 22.402344 32.984375 22.402344 C 32.984375 22.445312 32.984375 22.488281 32.984375 22.535156 C 32.925781 22.535156 32.871094 22.535156 32.8125 22.535156 C 32.816406 22.621094 32.816406 22.710938 32.820312 22.800781 C 32.820312 22.832031 32.820312 22.863281 32.824219 22.890625 C 32.824219 22.933594 32.824219 22.980469 32.824219 23.023438 C 32.828125 23.035156 32.828125 23.050781 32.828125 23.0625 C 32.824219 23.128906 32.824219 23.128906 32.851562 23.179688 C 32.894531 23.1875 32.941406 23.191406 32.984375 23.199219 C 32.984375 23.25 32.984375 23.300781 32.984375 23.351562 C 32.777344 23.367188 32.777344 23.367188 32.695312 23.304688 C 32.636719 23.222656 32.640625 23.164062 32.640625 23.066406 C 32.640625 23.050781 32.640625 23.035156 32.640625 23.019531 C 32.640625 22.96875 32.640625 22.921875 32.640625 22.875 C 32.640625 22.839844 32.640625 22.808594 32.640625 22.773438 C 32.640625 22.695312 32.640625 22.613281 32.640625 22.535156 C 32.585938 22.535156 32.527344 22.535156 32.472656 22.535156 C 32.472656 22.488281 32.472656 22.445312 32.472656 22.402344 C 32.527344 22.402344 32.582031 22.402344 32.640625 22.402344 C 32.640625 22.324219 32.640625 22.25 32.640625 22.171875 Z M 32.640625 22.171875 "/>
<path style=" stroke:none;fill-rule:nonzero;fill:rgb(78.823531%,89.803922%,78.039217%);fill-opacity:1;" d="M 7.546875 19.34375 C 7.613281 19.390625 7.660156 19.4375 7.695312 19.511719 C 7.710938 19.628906 7.691406 19.722656 7.617188 19.816406 C 7.558594 19.871094 7.492188 19.898438 7.410156 19.902344 C 7.328125 19.898438 7.261719 19.871094 7.199219 19.816406 C 7.128906 19.722656 7.109375 19.628906 7.125 19.511719 C 7.214844 19.332031 7.363281 19.28125 7.546875 19.34375 Z M 7.546875 19.34375 "/>
<path style=" stroke:none;fill-rule:nonzero;fill:rgb(80.000001%,90.980393%,78.823531%);fill-opacity:1;" d="M 21.109375 22.019531 C 21.171875 22.019531 21.234375 22.019531 21.300781 22.019531 C 21.300781 22.453125 21.300781 22.886719 21.300781 23.332031 C 21.234375 23.332031 21.171875 23.332031 21.109375 23.332031 C 21.109375 22.898438 21.109375 22.464844 21.109375 22.019531 Z M 21.109375 22.019531 "/>
<path style=" stroke:none;fill-rule:nonzero;fill:rgb(80.000001%,90.980393%,78.823531%);fill-opacity:1;" d="M 26.636719 22.402344 C 26.699219 22.402344 26.761719 22.402344 26.828125 22.402344 C 26.828125 22.707031 26.828125 23.015625 26.828125 23.332031 C 26.765625 23.332031 26.703125 23.332031 26.636719 23.332031 C 26.636719 23.023438 26.636719 22.71875 26.636719 22.402344 Z M 26.636719 22.402344 "/>
<path style=" stroke:none;fill-rule:nonzero;fill:rgb(79.607844%,90.980393%,78.431374%);fill-opacity:1;" d="M 18.542969 22.402344 C 18.601562 22.402344 18.65625 22.402344 18.714844 22.402344 C 18.714844 22.707031 18.714844 23.015625 18.714844 23.332031 C 18.660156 23.332031 18.601562 23.332031 18.542969 23.332031 C 18.542969 23.023438 18.542969 22.71875 18.542969 22.402344 Z M 18.542969 22.402344 "/>
<path style=" stroke:none;fill-rule:nonzero;fill:rgb(80.392158%,91.37255%,79.215688%);fill-opacity:1;" d="M 18.675781 22.058594 C 18.710938 22.082031 18.710938 22.082031 18.734375 22.117188 C 18.742188 22.164062 18.742188 22.164062 18.734375 22.210938 C 18.703125 22.246094 18.703125 22.246094 18.65625 22.269531 C 18.59375 22.261719 18.570312 22.257812 18.523438 22.210938 C 18.519531 22.15625 18.515625 22.128906 18.546875 22.082031 C 18.59375 22.050781 18.621094 22.050781 18.675781 22.058594 Z M 18.675781 22.058594 "/>
<path style=" stroke:none;fill-rule:nonzero;fill:rgb(80.000001%,90.980393%,78.823531%);fill-opacity:1;" d="M 26.753906 22.066406 C 26.808594 22.078125 26.808594 22.078125 26.828125 22.097656 C 26.832031 22.164062 26.832031 22.164062 26.828125 22.230469 C 26.769531 22.269531 26.769531 22.269531 26.710938 22.261719 C 26.65625 22.25 26.65625 22.25 26.636719 22.230469 C 26.632812 22.164062 26.632812 22.164062 26.636719 22.097656 C 26.695312 22.058594 26.695312 22.058594 26.753906 22.066406 Z M 26.753906 22.066406 "/>
</g>
</svg>
